<?xml version="1.0" encoding="utf-8"?>
<!DOCTYPE svg PUBLIC "-//W3C//DTD SVG 20010904//EN" "http://www.w3.org/TR/2001/REC-SVG-20010904/DTD/svg10.dtd">
<svg version="1.0" xmlns="http://www.w3.org/2000/svg" width="1282pt" height="351pt" viewBox="0 0 1282 351" style="" preserveAspectRatio="xMidYMid meet">
<g fill="#52863AFE">
<path d="M 114.500 17.763 C 87.550 41.712 59.118 75.979 41.705 105.500 C 28.348 128.145 19.666 149.112 14.376 171.500 C 11.749 182.619 11.540 185.005 11.526 204.000 C 11.510 226.152 12.650 234.316 17.741 248.500 C 30.572 284.251 62.189 316.390 104.203 336.388 C 121.446 344.596 119.650 345.288 120.494 330.109 C 121.815 306.366 118.372 291.196 108.105 275.512 C 103.389 268.309 98.511 263.148 82.519 248.440 C 64.255 231.643 53.281 216.177 48.465 200.448 C 44.823 188.551 45.489 187.394 50.346 197.181 C 58.061 212.724 68.434 224.360 90.000 241.662 C 103.859 252.782 113.442 262.493 117.695 269.727 L 120.500 274.500 121.291 258.500 C 122.698 230.051 121.078 215.180 115.094 201.587 C 112.382 195.425 107.605 188.854 97.948 178.000 C 82.231 160.333 77.587 152.722 74.574 139.688 C 72.841 132.188 72.461 123.962 74.012 127.500 C 74.494 128.600 75.575 131.975 76.413 135.000 C 79.052 144.516 84.710 152.503 100.388 168.843 C 108.577 177.378 116.954 186.955 119.003 190.126 L 122.730 195.892 123.615 140.196 C 124.102 109.563 124.500 67.485 124.500 46.688 L 124.500 8.877 114.500 17.763 "/></g>
<g fill="#DCBA58FE">
<path d="M 131.577 7.659 C 131.225 8.576 131.242 30.516 131.614 56.414 L 132.290 103.500 154.245 125.754 L 176.200 148.008 173.100 151.539 C 167.374 158.061 170.182 161.531 176.017 155.143 C 179.686 151.126 179.891 151.225 190.855 162.307 C 197.116 168.636 198.870 170.968 197.855 171.611 C 197.110 172.083 196.950 172.515 197.500 172.571 C 201.297 172.957 208.005 178.306 207.992 180.937 C 207.988 181.797 206.525 183.964 204.742 185.754 C 197.639 192.883 183.797 207.235 180.153 211.249 L 177.807 213.835 182.031 218.417 C 184.354 220.938 186.872 223.000 187.627 223.000 C 189.845 223.000 189.206 219.825 186.400 216.895 C 184.589 215.005 184.058 213.719 184.650 212.660 C 185.546 211.061 202.980 193.000 203.629 193.000 C 204.445 193.000 211.543 184.630 212.218 182.871 C 212.613 181.842 213.572 181.000 214.349 181.000 C 215.127 181.000 216.964 179.425 218.432 177.500 C 219.900 175.575 221.573 174.000 222.148 174.000 C 222.724 174.000 227.876 178.802 233.597 184.671 C 246.907 198.323 246.933 198.549 236.472 209.496 C 230.066 216.200 229.151 217.579 230.327 218.756 C 231.503 219.932 232.923 218.829 239.855 211.351 C 248.959 201.531 248.677 202.474 246.966 187.500 C 245.833 177.589 240.113 152.000 239.031 152.000 C 238.655 152.000 232.411 157.933 225.155 165.184 L 211.962 178.369 208.086 174.584 C 205.061 171.630 203.726 170.952 202.006 171.498 C 200.093 172.105 199.892 171.914 200.484 170.049 C 201.045 168.283 199.550 166.252 192.083 158.638 C 187.087 153.544 183.000 148.949 183.000 148.428 C 183.000 147.906 191.330 139.159 201.511 128.990 C 213.882 116.633 219.833 110.008 219.452 109.015 C 218.384 106.232 207.664 89.513 204.077 85.037 C 202.110 82.582 199.203 78.532 197.618 76.037 C 188.967 62.416 156.758 27.303 137.859 10.890 C 133.188 6.834 132.107 6.278 131.577 7.659 M 168.980 47.467 C 170.580 50.057 171.000 52.454 171.000 59.006 C 171.000 67.265 171.006 67.282 175.000 71.616 C 178.550 75.467 179.000 76.516 179.000 80.932 C 179.000 84.908 178.497 86.412 176.500 88.409 C 175.125 89.784 174.000 91.985 174.000 93.300 C 174.000 98.709 181.737 101.278 185.190 97.014 C 187.780 93.816 187.449 90.499 184.294 88.016 C 181.967 86.186 181.531 84.999 181.183 79.539 C 180.812 73.713 180.459 72.877 176.890 69.392 C 173.184 65.774 173.000 65.296 173.000 59.297 C 173.000 55.834 173.338 53.000 173.750 53.000 C 174.696 53.001 181.773 61.183 189.250 70.920 L 195.000 78.408 194.964 92.454 L 194.927 106.500 189.507 112.250 C 185.481 116.521 183.385 118.000 181.358 118.000 C 178.170 118.000 174.000 121.525 174.000 124.220 C 174.000 125.249 175.148 127.239 176.550 128.641 C 180.920 133.011 187.000 130.046 187.000 123.545 C 187.000 121.186 188.429 118.888 193.150 113.658 L 199.301 106.843 198.671 94.422 C 198.160 84.331 198.296 82.000 199.396 82.000 C 200.141 82.000 201.004 83.238 201.314 84.750 C 201.625 86.263 204.831 92.128 208.439 97.784 C 212.048 103.440 215.000 108.610 215.000 109.273 C 215.000 109.937 207.019 118.470 197.263 128.237 L 179.527 145.994 168.763 135.264 C 162.844 129.363 158.000 123.880 158.000 123.082 C 158.000 120.137 162.187 117.000 166.118 117.000 C 174.556 117.000 175.656 106.039 167.381 104.415 C 163.412 103.636 160.000 106.911 160.000 111.501 C 160.000 113.679 159.076 115.511 156.948 117.549 L 153.897 120.473 149.973 116.094 L 146.049 111.715 150.939 106.108 C 153.628 103.023 157.687 98.702 159.959 96.503 L 164.089 92.507 163.996 68.503 C 163.945 55.302 163.925 44.177 163.951 43.781 C 164.059 42.183 167.085 44.401 168.980 47.467 M 148.309 26.115 L 160.000 37.230 159.972 64.365 L 159.944 91.500 151.358 100.325 L 142.771 109.150 139.926 105.825 C 138.362 103.996 137.063 101.812 137.041 100.971 C 137.018 100.130 139.925 96.543 143.500 93.000 L 150.000 86.558 150.000 71.934 C 150.000 58.580 150.174 57.153 152.000 55.500 C 154.426 53.304 154.664 47.807 152.429 45.571 C 150.626 43.769 146.756 43.525 143.934 45.035 C 141.232 46.481 141.274 53.033 144.000 55.500 C 145.811 57.139 146.000 58.580 146.000 70.726 L 146.000 84.141 141.824 89.094 C 139.527 91.818 137.323 93.699 136.926 93.274 C 136.052 92.336 135.146 15.000 136.009 15.000 C 136.344 15.000 141.878 20.002 148.309 26.115 M 238.400 160.750 C 240.290 166.934 243.733 187.646 242.994 188.394 C 242.480 188.915 240.949 187.873 239.319 185.894 C 237.783 184.027 234.102 179.926 231.139 176.779 L 225.751 171.059 230.975 165.029 C 236.559 158.583 237.561 158.005 238.400 160.750 M 169.062 109.117 C 169.958 110.789 169.876 111.552 168.675 112.753 C 167.839 113.589 166.445 114.001 165.578 113.668 C 163.706 112.950 163.457 108.386 165.250 107.662 C 167.442 106.778 167.905 106.955 169.062 109.117 M 149.418 47.607 C 151.491 48.403 151.459 52.610 149.373 53.410 C 146.162 54.643 143.738 50.662 146.200 48.200 C 147.602 46.798 147.404 46.834 149.418 47.607 M 182.816 93.259 C 183.072 95.476 182.732 96.000 181.035 96.000 C 178.708 96.000 177.462 93.845 178.390 91.426 C 179.360 88.899 182.461 90.183 182.816 93.259 M 183.300 123.341 C 184.075 125.360 182.503 127.243 180.380 126.838 C 179.341 126.640 178.357 125.477 178.180 124.240 C 177.924 122.440 178.345 122.000 180.323 122.000 C 181.678 122.000 183.018 122.603 183.300 123.341 "/></g>
<g fill="#045628FE">
<path d="M 1140.704 116.596 C 1139.166 117.430 1137.479 119.241 1136.954 120.621 C 1136.392 122.099 1136.000 145.082 1136.000 176.565 L 1136.000 230.000 1142.845 230.000 C 1153.168 230.000 1153.000 230.385 1153.000 206.671 L 1153.000 187.000 1167.426 187.000 L 1181.853 187.000 1194.023 207.458 C 1200.717 218.710 1206.863 228.472 1207.681 229.150 C 1209.688 230.816 1219.831 231.433 1223.282 230.100 C 1225.948 229.070 1226.004 228.909 1224.635 226.263 C 1223.238 223.563 1209.973 202.145 1202.670 190.798 C 1200.651 187.662 1199.000 184.708 1199.000 184.233 C 1199.000 183.759 1200.688 182.579 1202.750 181.612 C 1209.340 178.522 1213.903 174.862 1217.005 170.178 C 1220.889 164.314 1221.966 160.148 1222.115 150.404 C 1222.396 132.024 1211.827 120.358 1191.345 116.439 C 1180.562 114.376 1144.593 114.488 1140.704 116.596 M 1186.277 128.958 C 1193.092 130.074 1199.545 134.057 1202.368 138.890 C 1203.720 141.205 1204.473 144.691 1204.745 149.889 C 1205.084 156.380 1204.801 158.161 1202.821 161.988 C 1198.044 171.226 1187.352 174.507 1164.265 173.820 L 1153.500 173.500 1153.229 152.025 C 1153.081 140.213 1153.179 129.976 1153.448 129.275 C 1154.046 127.717 1177.328 127.492 1186.277 128.958 "/></g>
<g fill="#045628FE">
<path d="M 746.209 115.566 C 743.507 117.459 741.666 120.988 735.549 136.000 C 732.972 142.325 728.820 152.225 726.324 158.000 C 719.086 174.740 710.571 194.607 705.537 206.500 C 702.976 212.550 700.007 219.425 698.940 221.777 C 697.873 224.129 697.000 226.728 697.000 227.552 C 697.000 229.640 701.158 231.000 707.542 231.000 C 714.117 231.000 713.803 231.424 720.962 212.893 L 726.219 199.286 742.859 198.870 C 752.012 198.642 764.872 198.690 771.438 198.977 L 783.377 199.500 789.058 214.000 C 795.328 230.003 796.179 230.970 804.000 230.972 C 813.477 230.974 814.591 229.517 811.035 221.777 C 808.807 216.930 791.494 176.866 783.474 158.000 C 766.079 117.080 765.645 116.159 763.267 115.076 C 759.632 113.420 748.831 113.730 746.209 115.566 M 756.000 132.007 C 756.000 132.496 760.725 144.471 766.500 158.618 C 772.275 172.765 777.000 184.488 777.000 184.670 C 777.000 184.851 767.100 185.000 755.000 185.000 C 738.123 185.000 733.000 184.710 733.000 183.756 C 733.000 183.072 737.436 171.484 742.857 158.006 C 748.279 144.528 753.001 132.684 753.350 131.687 C 753.963 129.939 756.000 130.186 756.000 132.007 "/></g>
<g fill="#045628FE">
<path d="M 1057.209 113.963 C 1051.113 115.447 1051.708 114.408 1037.431 148.500 C 1030.686 164.607 1022.944 182.940 1020.539 188.500 C 1016.325 198.239 1013.550 204.802 1009.119 215.500 C 1003.262 229.641 1003.406 230.176 1013.241 230.803 C 1020.939 231.293 1021.368 230.877 1025.947 218.500 C 1027.778 213.550 1030.288 207.196 1031.526 204.379 L 1033.776 199.259 1048.138 198.879 C 1056.037 198.671 1068.778 198.725 1076.452 199.000 L 1090.404 199.500 1096.169 213.990 C 1099.340 221.959 1102.737 229.081 1103.717 229.816 C 1105.767 231.354 1118.331 231.069 1119.951 229.449 C 1120.839 228.561 1113.115 209.755 1091.630 160.500 C 1082.161 138.790 1078.913 131.222 1076.213 124.571 C 1074.629 120.667 1072.331 116.879 1070.950 115.896 C 1067.964 113.768 1061.654 112.881 1057.209 113.963 M 1072.949 157.000 C 1078.585 171.025 1083.425 183.063 1083.705 183.750 C 1084.103 184.728 1079.397 185.000 1062.107 185.000 C 1049.852 185.000 1040.000 184.603 1040.000 184.110 C 1040.000 183.620 1044.440 172.033 1049.866 158.360 C 1055.292 144.687 1060.032 132.637 1060.398 131.583 C 1060.781 130.483 1061.415 130.057 1061.884 130.583 C 1062.334 131.087 1067.313 142.975 1072.949 157.000 "/></g>
<g fill="#40240EFE">
<path d="M 470.000 115.601 C 444.159 122.506 427.460 145.096 427.568 173.000 C 427.637 190.686 432.994 204.122 444.514 215.500 C 450.836 221.743 454.323 224.079 463.000 227.884 C 472.163 231.902 490.533 233.142 501.742 230.499 C 510.071 228.535 519.714 224.068 524.280 220.059 L 528.000 216.793 528.000 194.396 L 528.000 172.000 518.523 172.000 L 509.046 172.000 508.773 189.750 L 508.500 207.500 502.500 210.500 C 497.001 213.249 495.665 213.496 486.500 213.449 C 477.727 213.404 475.736 213.052 470.278 210.575 C 463.835 207.652 455.675 200.139 452.706 194.398 C 446.372 182.150 446.734 162.027 453.494 150.500 C 456.473 145.422 463.356 138.795 468.418 136.133 C 481.808 129.090 501.655 131.692 512.812 141.954 C 514.633 143.629 516.326 145.000 516.573 145.000 C 516.821 145.000 519.805 142.353 523.204 139.118 C 529.368 133.252 529.380 133.229 527.708 130.677 C 524.276 125.440 511.727 118.451 500.540 115.547 C 493.058 113.605 477.367 113.633 470.000 115.601 "/></g>
<g fill="#40240EFE">
<path d="M 308.385 116.051 C 291.808 121.307 283.431 130.766 282.242 145.573 C 281.420 155.816 283.373 161.539 289.906 168.031 C 296.109 174.195 297.912 174.989 321.817 182.092 C 337.496 186.751 343.184 189.761 345.489 194.617 C 347.583 199.030 347.381 202.139 344.747 206.048 C 340.811 211.888 336.870 213.434 324.872 213.847 C 310.791 214.332 299.481 211.012 289.368 203.427 L 286.236 201.078 282.938 208.642 C 279.205 217.204 279.355 217.965 285.593 222.073 C 304.783 234.713 338.570 235.235 354.575 223.138 C 364.138 215.910 368.599 203.738 366.073 191.760 C 363.378 178.981 354.624 171.788 334.916 166.159 C 313.167 159.947 310.113 158.810 306.284 155.500 C 302.753 152.447 302.500 151.858 302.500 146.680 C 302.500 141.911 302.910 140.703 305.420 138.083 C 309.963 133.341 316.027 131.481 326.500 131.616 C 336.347 131.744 345.585 134.234 352.188 138.541 L 355.875 140.946 358.938 133.005 C 360.622 128.638 362.000 124.831 362.000 124.547 C 362.000 123.304 349.134 117.697 342.234 115.932 C 332.061 113.330 316.798 113.384 308.385 116.051 "/></g>
<g fill="#045628FE">
<path d="M 674.730 116.231 C 672.657 117.433 658.720 130.922 643.761 146.208 C 628.801 161.494 616.323 174.000 616.031 174.001 C 615.739 174.001 615.626 160.726 615.779 144.501 L 616.058 115.000 610.979 115.000 C 604.241 115.000 600.443 117.036 599.634 121.082 C 599.285 122.824 599.000 148.044 599.000 177.125 L 599.000 230.000 605.845 230.000 C 615.942 230.000 616.000 229.888 616.000 210.522 L 616.000 194.701 625.558 185.100 C 635.032 175.584 635.129 175.519 636.659 177.719 C 637.508 178.939 646.108 190.806 655.772 204.091 C 669.394 222.818 674.082 228.554 676.639 229.622 C 681.739 231.753 694.000 231.226 694.000 228.876 C 694.000 228.386 683.382 213.830 670.404 196.530 C 657.426 179.230 646.964 164.656 647.154 164.143 C 647.344 163.631 657.513 153.005 669.750 140.531 C 681.988 128.058 692.000 117.479 692.000 117.024 C 692.000 115.768 686.159 113.997 682.101 114.023 C 680.120 114.036 676.804 115.029 674.730 116.231 "/></g>
<g fill="#045628FE">
<path d="M 832.789 116.363 C 831.848 117.078 830.611 118.893 830.039 120.397 C 829.367 122.164 829.000 141.982 829.000 176.459 L 829.000 229.787 845.750 230.535 C 866.285 231.451 903.814 230.399 905.675 228.855 C 906.474 228.192 907.000 225.625 907.000 222.392 L 907.000 217.029 876.830 216.765 L 846.660 216.500 846.376 198.500 C 846.220 188.600 846.072 165.763 846.046 147.750 L 846.000 115.000 840.250 115.032 C 837.088 115.049 833.730 115.648 832.789 116.363 "/></g>
<g fill="#045628FE">
<path d="M 926.504 117.405 L 924.000 119.909 924.000 174.861 L 924.000 229.813 933.488 230.525 C 938.706 230.916 955.243 230.931 970.238 230.559 C 996.310 229.911 997.578 229.789 999.298 227.771 C 1000.569 226.279 1001.008 224.376 1000.798 221.282 L 1000.500 216.904 970.500 216.702 L 940.500 216.500 940.334 166.000 L 940.168 115.500 934.589 115.200 C 929.748 114.940 928.677 115.232 926.504 117.405 "/></g>
<g fill="#40240EFE">
<path d="M 387.667 115.667 C 387.300 116.033 387.000 141.908 387.000 173.167 L 387.000 230.000 396.500 230.000 L 406.000 230.000 406.000 172.500 L 406.000 115.000 397.167 115.000 C 392.308 115.000 388.033 115.300 387.667 115.667 "/></g>
<g fill="#045628FE">
<path d="M 1249.646 117.452 L 1247.000 119.905 1247.000 174.952 L 1247.000 230.000 1253.845 230.000 C 1264.893 230.000 1264.000 235.217 1264.000 170.671 L 1264.000 115.000 1258.146 115.000 C 1253.318 115.000 1251.828 115.430 1249.646 117.452 "/></g>
<g fill="#40240EFE">
<path d="M 1200.843 256.975 C 1196.108 258.405 1192.014 261.372 1189.227 265.394 C 1186.877 268.785 1186.500 270.320 1186.500 276.500 C 1186.500 282.703 1186.873 284.209 1189.264 287.659 C 1198.084 300.387 1219.601 299.237 1226.692 285.660 C 1228.830 281.568 1228.805 271.458 1226.648 267.286 C 1222.214 258.711 1210.538 254.046 1200.843 256.975 M 1216.613 266.284 C 1219.468 268.900 1220.304 270.516 1220.722 274.225 C 1221.427 280.480 1220.534 283.472 1216.938 286.909 C 1206.585 296.803 1190.136 286.350 1193.924 272.283 C 1195.640 265.909 1199.766 263.000 1207.091 263.000 C 1212.409 263.000 1213.404 263.343 1216.613 266.284 "/></g>
<g fill="#DCBA58FE">
<path d="M 149.000 208.326 C 149.000 209.055 150.125 210.708 151.500 212.000 C 152.875 213.292 154.000 214.752 154.000 215.246 C 154.000 216.397 156.589 219.000 157.734 219.000 C 159.290 219.000 191.489 253.073 191.820 255.070 C 191.995 256.131 192.903 257.000 193.837 257.000 C 196.121 257.000 217.000 278.050 217.000 280.353 C 217.000 281.354 214.290 284.996 210.977 288.445 C 205.647 293.996 205.137 294.869 206.541 296.034 C 207.914 297.173 208.983 296.456 214.490 290.699 C 221.161 283.727 230.655 270.161 231.671 266.150 C 232.174 264.168 230.575 262.104 221.459 252.959 L 210.650 242.117 217.575 234.494 C 221.384 230.301 225.043 225.887 225.706 224.685 C 228.156 220.245 223.615 223.034 215.751 230.800 L 208.002 238.452 200.751 231.341 C 194.115 224.834 191.000 223.243 191.000 226.362 C 191.000 227.020 193.925 230.457 197.500 234.000 C 201.075 237.543 204.000 240.924 204.000 241.513 C 204.000 242.102 202.062 244.486 199.693 246.811 L 195.386 251.038 177.693 232.916 C 167.962 222.949 160.000 214.391 160.000 213.897 C 160.000 213.404 159.365 213.000 158.589 213.000 C 157.813 213.000 156.042 211.650 154.653 210.000 C 152.045 206.900 149.000 205.999 149.000 208.326 M 217.799 254.349 C 222.860 259.491 227.000 264.262 227.000 264.952 C 227.000 266.387 221.765 275.997 220.983 275.999 C 220.699 276.000 215.540 271.058 209.519 265.019 L 198.571 254.037 202.036 250.289 C 205.717 246.307 207.161 245.040 208.049 245.015 C 208.352 245.007 212.739 249.207 217.799 254.349 "/></g>
<g fill="#40240EFE">
<path d="M 904.000 276.500 L 904.000 296.000 915.250 295.990 C 924.980 295.982 927.189 295.660 931.599 293.606 C 940.779 289.332 944.512 280.454 941.456 270.165 C 938.523 260.287 932.050 257.000 915.532 257.000 L 904.000 257.000 904.000 276.500 M 930.669 266.335 C 933.817 269.220 934.367 270.401 934.743 275.085 C 935.104 279.578 934.775 281.093 932.809 283.985 C 929.546 288.786 926.678 289.968 918.250 289.985 L 911.000 290.000 911.000 276.500 L 911.000 263.000 919.015 263.000 C 926.705 263.000 927.177 263.135 930.669 266.335 "/></g>
<g fill="#40240EFE">
<path d="M 761.000 276.500 L 761.000 296.000 764.500 296.000 L 768.000 296.000 768.000 290.132 L 768.000 284.263 773.310 284.141 L 778.619 284.018 782.844 290.009 C 786.621 295.365 787.436 296.000 790.534 296.000 C 792.441 296.000 794.000 295.750 794.000 295.445 C 794.000 295.140 792.224 292.274 790.053 289.077 L 786.105 283.265 789.803 280.272 C 793.383 277.374 793.500 277.073 793.500 270.745 C 793.500 259.785 789.164 257.000 772.099 257.000 L 761.000 257.000 761.000 276.500 M 785.000 265.000 C 789.045 269.045 786.162 277.154 780.273 278.295 C 778.748 278.591 775.363 278.583 772.750 278.277 L 768.000 277.721 768.000 270.361 L 768.000 263.000 775.500 263.000 C 781.667 263.000 783.356 263.356 785.000 265.000 "/></g>
<g fill="#40240EFE">
<path d="M 453.000 276.500 L 453.000 296.000 456.552 296.000 L 460.103 296.000 459.938 284.002 C 459.847 277.402 460.034 271.890 460.354 271.752 C 460.675 271.613 463.680 276.140 467.033 281.811 C 471.412 289.217 473.604 292.034 474.815 291.811 C 475.742 291.640 479.425 286.572 483.000 280.550 L 489.500 269.599 489.779 282.800 L 490.058 296.000 493.529 296.000 L 497.000 296.000 497.000 276.500 L 497.000 257.000 493.612 257.000 C 490.336 257.000 489.981 257.411 482.862 269.479 C 478.813 276.342 475.233 281.967 474.907 281.979 C 474.581 281.990 472.377 278.738 470.008 274.750 C 460.126 258.111 459.251 257.000 456.012 257.000 L 453.000 257.000 453.000 276.500 "/></g>
<g fill="#98C894FE">
<path d="M 211.629 134.385 C 199.661 146.834 197.363 149.977 200.808 149.186 C 201.734 148.973 201.984 149.474 201.584 150.736 C 201.172 152.032 202.059 153.635 204.496 155.996 C 206.423 157.864 208.000 159.842 208.000 160.391 C 208.000 160.941 206.817 162.626 205.370 164.136 C 203.640 165.941 202.967 167.471 203.402 168.605 C 203.978 170.107 204.488 169.920 207.330 167.165 C 211.366 163.253 212.476 163.224 215.612 166.950 C 217.075 168.689 218.691 169.672 219.547 169.344 C 221.766 168.492 221.308 166.913 217.789 163.282 L 214.578 159.969 222.187 152.235 C 226.371 147.981 230.097 143.488 230.465 142.250 C 231.286 139.491 233.000 139.282 233.000 141.941 C 233.000 143.009 233.479 144.178 234.064 144.539 C 236.010 145.742 233.866 137.827 229.922 129.250 C 227.836 124.713 225.762 121.000 225.313 121.000 C 224.864 121.000 218.706 127.023 211.629 134.385 M 227.536 132.250 C 228.881 135.138 229.985 137.959 229.990 138.520 C 229.996 139.081 225.824 143.698 220.720 148.781 L 211.439 158.023 207.035 153.535 L 202.630 149.048 213.065 138.133 C 218.804 132.130 223.858 127.169 224.296 127.109 C 224.734 127.049 226.192 129.363 227.536 132.250 "/></g>
<g fill="#40240EFE">
<path d="M 592.000 276.500 L 592.000 296.000 595.500 296.000 L 599.000 296.000 599.000 282.786 C 599.000 267.359 597.710 267.215 611.477 284.184 C 619.936 294.612 620.926 295.500 624.079 295.500 L 627.500 295.500 627.803 276.250 L 628.106 257.000 624.572 257.000 C 620.060 257.000 619.605 258.606 620.334 271.967 C 620.635 277.461 620.545 282.163 620.136 282.416 C 619.727 282.669 614.570 277.054 608.677 269.938 C 599.323 258.644 597.583 257.000 594.981 257.000 L 592.000 257.000 592.000 276.500 "/></g>
<g fill="#107660FE">
<path d="M 147.000 266.072 C 145.075 267.717 143.500 269.536 143.500 270.115 C 143.500 270.693 143.226 270.893 142.892 270.558 C 142.557 270.224 140.406 272.047 138.111 274.611 L 133.939 279.273 134.043 310.623 C 134.100 327.865 134.483 342.181 134.894 342.435 C 135.761 342.971 160.600 332.028 165.772 328.832 C 168.595 327.087 169.002 326.461 167.885 325.585 C 166.811 324.743 166.572 321.865 166.820 312.750 C 167.129 301.431 167.064 301.000 165.070 301.000 C 163.087 301.000 163.000 301.526 163.000 313.477 L 163.000 325.953 158.864 327.952 C 156.589 329.051 154.339 329.710 153.864 329.416 C 153.389 329.122 153.000 320.557 153.000 310.381 L 153.000 291.881 156.712 287.440 C 158.753 284.998 161.003 283.000 161.712 283.000 C 162.420 283.000 163.000 282.161 163.000 281.137 C 163.000 279.982 162.335 279.320 161.250 279.396 C 158.711 279.574 156.918 280.949 152.727 285.930 L 149.000 290.360 149.000 311.160 L 149.000 331.959 144.903 334.049 C 142.650 335.199 140.198 335.906 139.454 335.621 C 138.366 335.203 138.089 329.766 138.033 307.771 L 137.965 280.440 141.941 276.558 C 144.128 274.422 145.684 272.298 145.400 271.837 C 145.115 271.377 145.239 270.438 145.676 269.750 C 146.208 268.912 146.474 268.875 146.485 269.640 C 146.493 270.268 148.058 269.480 149.962 267.890 C 151.866 266.301 152.852 265.000 152.153 265.000 C 151.454 265.000 151.160 264.550 151.500 264.000 C 152.684 262.085 150.477 263.101 147.000 266.072 "/></g>
<g fill="#40240EFE">
<path d="M 812.389 266.750 C 804.231 284.133 800.000 293.740 800.000 294.882 C 800.000 295.497 801.514 296.000 803.364 296.000 C 806.430 296.000 806.881 295.601 808.447 291.500 L 810.165 287.000 820.639 287.000 L 831.112 287.000 833.103 291.500 C 834.908 295.580 835.416 296.000 838.547 296.000 C 840.446 296.000 842.000 295.540 842.000 294.978 C 842.000 294.416 838.092 285.641 833.316 275.478 L 824.632 257.000 820.798 257.000 L 816.964 257.000 812.389 266.750 M 824.924 272.810 C 826.733 276.831 827.903 280.431 827.524 280.810 C 826.535 281.800 814.138 282.032 813.544 281.072 C 812.866 279.974 820.272 263.838 821.030 264.763 C 821.362 265.168 823.115 268.790 824.924 272.810 "/></g>
<g fill="#40240EFE">
<path d="M 512.986 275.706 C 508.319 285.994 504.340 294.799 504.144 295.273 C 503.949 295.746 505.478 295.991 507.543 295.817 C 511.354 295.495 512.233 294.666 513.976 289.750 L 514.950 287.000 525.531 287.000 L 536.112 287.000 538.103 291.500 C 539.921 295.610 540.400 296.000 543.630 296.000 C 545.575 296.000 547.017 295.590 546.833 295.089 C 546.650 294.589 542.692 285.814 538.037 275.589 L 529.575 257.000 525.524 257.000 L 521.473 257.000 512.986 275.706 M 529.595 272.646 C 532.133 278.485 532.662 280.602 531.733 281.211 C 530.240 282.190 519.096 281.965 518.465 280.943 C 518.218 280.544 518.872 278.256 519.917 275.859 C 520.963 273.461 522.540 269.743 523.422 267.596 C 524.304 265.450 525.295 263.962 525.624 264.291 C 525.954 264.620 527.740 268.380 529.595 272.646 "/></g>
<g fill="#40240EFE">
<path d="M 1239.000 276.500 L 1239.000 296.000 1242.500 296.000 L 1246.000 296.000 1246.006 282.750 L 1246.013 269.500 1249.863 274.000 C 1251.981 276.475 1256.833 282.325 1260.646 287.000 C 1266.402 294.057 1268.124 295.553 1270.789 295.813 L 1274.000 296.127 1274.000 276.563 L 1274.000 257.000 1270.529 257.000 L 1267.058 257.000 1266.779 270.111 L 1266.500 283.222 1255.703 270.111 C 1246.301 258.694 1244.524 257.000 1241.953 257.000 L 1239.000 257.000 1239.000 276.500 "/></g>
<g fill="#40240EFE">
<path d="M 1055.000 276.500 L 1055.000 296.000 1070.000 296.000 L 1085.000 296.000 1085.000 293.000 L 1085.000 290.000 1073.500 290.000 L 1062.000 290.000 1062.000 284.536 L 1062.000 279.072 1071.750 278.786 C 1081.407 278.503 1081.500 278.476 1081.500 276.000 C 1081.500 273.524 1081.407 273.497 1071.750 273.214 L 1062.000 272.928 1062.000 267.998 L 1062.000 263.068 1072.750 262.784 L 1083.500 262.500 1083.816 259.750 L 1084.133 257.000 1069.566 257.000 L 1055.000 257.000 1055.000 276.500 "/></g>
<g fill="#40240EFE">
<path d="M 676.000 276.500 L 676.000 296.000 691.000 296.000 C 704.625 296.000 705.999 295.840 705.985 294.250 C 705.949 290.183 704.691 289.756 693.870 290.136 L 683.500 290.500 683.200 284.750 L 682.900 279.000 692.950 279.000 L 703.000 279.000 703.000 276.000 L 703.000 273.000 693.000 273.000 L 683.000 273.000 683.000 268.000 C 683.000 264.693 683.423 262.983 684.250 262.950 C 684.938 262.922 689.775 262.810 695.000 262.700 L 704.500 262.500 704.816 259.750 L 705.133 257.000 690.566 257.000 L 676.000 257.000 676.000 276.500 "/></g>
<g fill="#40240EFE">
<path d="M 952.000 276.500 L 952.000 296.000 967.066 296.000 L 982.133 296.000 981.816 293.250 C 981.552 290.949 981.011 290.490 978.500 290.438 C 976.850 290.403 971.788 290.291 967.250 290.188 L 959.000 290.000 959.000 284.536 L 959.000 279.072 968.750 278.786 C 978.407 278.503 978.500 278.476 978.500 276.000 C 978.500 273.524 978.407 273.497 968.750 273.214 L 959.000 272.928 959.000 267.964 L 959.000 263.000 969.387 263.000 L 979.773 263.000 980.213 260.000 L 980.654 257.000 966.327 257.000 L 952.000 257.000 952.000 276.500 "/></g>
<g fill="#40240EFE">
<path d="M 413.000 276.500 L 413.000 296.000 428.000 296.000 L 443.000 296.000 443.000 293.611 C 443.000 291.662 442.340 291.099 439.415 290.550 C 437.443 290.180 433.401 290.181 430.433 290.552 C 427.465 290.922 423.903 290.942 422.518 290.594 C 420.210 290.015 420.000 289.504 420.000 284.481 L 420.000 279.000 429.833 279.000 C 440.542 279.000 439.719 279.467 439.083 273.750 C 439.038 273.338 434.725 273.000 429.500 273.000 L 420.000 273.000 420.000 268.000 L 420.000 263.000 431.000 263.000 L 442.000 263.000 442.000 260.000 L 442.000 257.000 427.500 257.000 L 413.000 257.000 413.000 276.500 "/></g>
<g fill="#40240EFE">
<path d="M 1024.500 256.491 C 1023.950 256.675 1022.251 257.101 1020.725 257.438 C 1017.082 258.242 1010.050 264.651 1008.347 268.718 C 1001.845 284.248 1017.193 300.389 1034.312 296.023 C 1043.302 293.731 1044.000 292.893 1044.000 284.385 L 1044.000 277.000 1040.500 277.000 L 1037.000 277.000 1037.000 282.922 C 1037.000 288.825 1036.988 288.849 1033.435 290.022 C 1026.090 292.446 1018.387 288.923 1015.554 281.844 C 1013.218 276.005 1014.256 270.811 1018.632 266.434 C 1021.789 263.277 1022.556 263.000 1028.129 263.000 C 1032.028 263.000 1035.213 263.604 1037.055 264.692 C 1039.769 266.295 1040.026 266.287 1041.968 264.529 C 1043.890 262.789 1043.913 262.562 1042.344 260.828 C 1039.625 257.823 1028.565 255.135 1024.500 256.491 "/></g>
<g fill="#40240EFE">
<path d="M 727.500 257.426 C 721.641 259.052 714.667 265.917 713.636 271.072 C 712.061 278.944 714.248 286.347 719.635 291.385 C 725.795 297.144 737.652 298.259 746.227 293.884 L 750.000 291.959 750.000 284.480 L 750.000 277.000 746.500 277.000 L 743.000 277.000 743.000 282.961 L 743.000 288.923 738.841 290.043 C 727.231 293.169 717.837 283.747 720.968 272.117 C 723.353 263.262 734.247 259.693 743.209 264.830 C 745.707 266.262 746.078 266.239 747.956 264.540 C 749.562 263.086 749.745 262.398 748.819 261.282 C 745.292 257.032 735.379 255.239 727.500 257.426 "/></g>
<g fill="#40240EFE">
<path d="M 1102.297 257.109 C 1096.917 258.376 1093.000 262.814 1093.000 267.642 C 1093.000 274.330 1095.636 276.557 1107.044 279.509 C 1114.836 281.524 1116.000 282.387 1116.000 286.147 C 1116.000 288.388 1115.373 289.293 1113.250 290.118 C 1109.743 291.481 1101.151 290.646 1097.093 288.548 C 1094.057 286.978 1093.935 286.998 1093.059 289.214 C 1091.809 292.378 1094.569 294.561 1101.686 296.039 C 1111.679 298.113 1120.091 295.419 1122.635 289.330 C 1125.637 282.146 1122.237 277.315 1112.133 274.408 C 1102.337 271.589 1100.000 270.285 1100.000 267.639 C 1100.000 266.322 1100.657 264.699 1101.461 264.033 C 1103.884 262.022 1110.187 261.711 1114.967 263.368 C 1119.643 264.988 1120.951 264.454 1120.985 260.911 C 1121.017 257.543 1109.984 255.299 1102.297 257.109 "/></g>
<g fill="#40240EFE">
<path d="M 347.275 256.971 C 337.913 259.195 334.086 267.384 339.437 273.742 C 341.776 276.522 344.554 277.743 353.705 280.011 C 365.072 282.828 362.437 291.576 350.477 290.729 C 347.715 290.533 343.929 289.612 342.065 288.682 C 338.185 286.747 338.366 286.692 337.526 290.040 C 336.981 292.212 337.381 292.811 340.307 294.206 C 353.113 300.313 368.000 295.299 368.000 284.878 C 368.000 278.430 364.234 275.888 349.820 272.607 C 346.826 271.926 344.000 269.504 344.000 267.620 C 344.000 266.939 344.640 265.509 345.423 264.441 C 346.587 262.855 348.004 262.516 353.183 262.586 C 356.668 262.633 360.534 263.216 361.775 263.880 C 363.767 264.945 364.134 264.818 364.901 262.794 C 366.104 259.617 364.747 258.326 358.885 257.069 C 353.327 255.877 351.930 255.865 347.275 256.971 "/></g>
<g fill="#40240EFE">
<path d="M 289.347 257.097 C 281.529 258.947 277.350 265.908 280.454 271.910 C 282.262 275.408 285.601 277.382 292.599 279.094 C 300.590 281.048 303.000 282.636 303.000 285.948 C 303.000 288.391 302.432 289.032 299.375 290.041 C 295.239 291.406 288.329 290.739 284.132 288.568 C 281.998 287.464 281.014 287.386 280.149 288.251 C 277.934 290.466 278.934 292.756 282.787 294.298 C 296.180 299.657 310.000 295.314 310.000 285.747 C 310.000 278.601 307.425 276.385 295.697 273.439 C 288.321 271.586 285.460 269.277 286.495 266.014 C 287.744 262.079 295.104 260.876 302.274 263.434 C 305.701 264.657 306.137 264.613 307.024 262.956 C 308.491 260.214 308.255 259.601 305.212 258.254 C 301.192 256.475 294.147 255.961 289.347 257.097 "/></g>
<g fill="#40240EFE">
<path d="M 546.667 170.667 C 545.833 171.500 545.787 181.282 546.607 183.418 C 547.127 184.774 549.625 185.000 564.107 185.000 L 581.000 185.000 581.000 177.500 L 581.000 170.000 564.167 170.000 C 554.908 170.000 547.033 170.300 546.667 170.667 "/></g>
<g fill="#98C894FE">
<path d="M 189.073 259.635 C 187.154 262.074 187.000 263.578 187.000 279.922 L 187.000 297.575 182.000 302.500 C 177.433 306.999 177.000 307.825 177.000 312.043 C 177.000 316.357 176.710 316.869 172.587 319.830 C 170.159 321.574 167.684 323.000 167.087 323.000 C 165.430 323.000 165.790 324.388 167.768 325.623 C 169.230 326.536 171.349 325.538 180.018 319.852 C 190.116 313.229 210.466 296.516 208.471 296.485 C 207.937 296.476 206.918 296.100 206.206 295.649 C 204.556 294.602 202.249 296.480 201.696 299.323 C 201.274 301.491 201.272 301.491 201.136 299.250 C 201.061 298.013 200.438 296.986 199.750 296.970 C 199.063 296.953 199.304 296.471 200.286 295.900 C 201.596 295.138 202.011 293.816 201.842 290.951 C 201.673 288.086 202.197 286.419 203.806 284.707 C 206.607 281.724 206.610 277.646 203.811 275.039 C 197.387 269.054 189.771 278.870 195.833 285.323 C 197.597 287.200 197.997 288.827 197.985 294.064 C 197.976 297.604 197.639 300.984 197.235 301.575 C 196.831 302.166 193.095 305.340 188.934 308.627 C 184.382 312.223 181.524 315.180 181.760 316.052 C 182.084 317.249 181.968 317.240 181.091 316.000 C 178.627 312.516 179.831 307.888 184.500 302.897 L 189.000 298.086 189.000 280.198 C 189.000 263.580 189.142 262.181 191.000 260.500 C 192.100 259.505 193.000 258.310 193.000 257.845 C 193.000 256.183 191.110 257.045 189.073 259.635 M 202.506 278.009 C 203.606 279.790 201.931 283.000 199.901 283.000 C 197.719 283.000 196.478 280.802 197.362 278.500 C 198.011 276.807 201.554 276.469 202.506 278.009 "/></g>
<g fill="#40240EFE">
<path d="M 1128.000 260.000 L 1128.000 263.000 1134.500 263.000 L 1141.000 263.000 1141.000 279.500 L 1141.000 296.000 1144.500 296.000 L 1148.000 296.000 1148.000 279.546 L 1148.000 263.091 1154.750 262.796 C 1161.286 262.509 1161.510 262.413 1161.816 259.750 L 1162.133 257.000 1145.066 257.000 L 1128.000 257.000 1128.000 260.000 "/></g>
<g fill="#40240EFE">
<path d="M 372.181 259.726 C 372.487 262.391 372.746 262.512 378.750 262.798 L 385.000 263.095 385.077 274.798 C 385.219 296.516 385.034 295.455 388.750 295.813 L 392.000 296.127 392.000 279.609 L 392.000 263.091 398.750 262.796 C 405.204 262.513 405.500 262.391 405.500 260.000 L 405.500 257.500 388.681 257.226 L 371.862 256.951 372.181 259.726 "/></g>
<g fill="#40240EFE">
<path d="M 635.787 260.000 L 635.346 263.000 642.237 263.000 L 649.127 263.000 648.993 270.750 C 648.919 275.013 648.891 282.438 648.929 287.250 L 649.000 296.000 651.981 296.000 C 655.966 296.000 656.317 294.272 655.842 276.982 L 655.458 263.000 662.229 263.000 L 669.000 263.000 669.000 260.000 L 669.000 257.000 652.613 257.000 L 636.227 257.000 635.787 260.000 "/></g>
<g fill="#98C894FE">
<path d="M 214.437 184.102 C 214.055 184.720 216.662 188.132 220.378 191.877 C 226.418 197.964 228.300 201.283 226.212 202.167 C 225.778 202.350 223.483 204.625 221.110 207.222 L 216.797 211.944 220.398 216.152 C 222.379 218.466 224.000 220.778 224.000 221.288 C 224.000 221.799 225.125 221.934 226.500 221.589 C 228.511 221.085 229.000 221.334 229.000 222.867 C 229.000 223.915 231.475 227.410 234.500 230.635 C 237.525 233.859 240.000 236.839 240.000 237.255 C 240.000 237.672 238.381 242.107 236.403 247.110 C 233.981 253.233 233.136 256.536 233.816 257.216 C 235.489 258.889 236.585 257.410 239.323 249.781 C 242.834 239.998 245.714 227.962 246.507 219.751 C 247.064 213.989 246.939 213.086 245.657 213.578 C 244.683 213.952 243.753 216.676 243.013 221.327 C 241.301 232.076 241.504 231.905 236.373 226.924 C 233.866 224.491 231.297 221.375 230.662 220.000 C 230.027 218.625 229.651 218.175 229.825 219.000 C 229.999 219.825 228.310 218.721 226.071 216.547 C 223.832 214.373 222.000 212.136 222.000 211.576 C 222.000 211.016 224.588 207.943 227.750 204.746 L 233.500 198.934 225.151 190.967 C 216.610 182.818 215.622 182.185 214.437 184.102 "/></g>
<g fill="#40240EFE">
<path d="M 850.624 257.799 C 850.352 258.239 850.213 266.902 850.315 277.049 L 850.500 295.500 864.250 295.778 L 878.000 296.056 878.000 293.028 L 878.000 290.000 867.500 290.000 L 857.000 290.000 857.000 273.500 L 857.000 257.000 854.059 257.000 C 852.441 257.000 850.896 257.360 850.624 257.799 "/></g>
<g fill="#98C894FE">
<path d="M 169.832 159.703 C 168.647 161.131 172.295 165.470 183.750 176.254 C 186.088 178.454 188.000 180.656 188.000 181.146 C 188.000 181.637 185.188 184.727 181.750 188.014 C 178.313 191.301 175.838 194.048 176.250 194.120 C 176.663 194.191 176.663 194.310 176.250 194.383 C 175.838 194.457 171.611 198.563 166.858 203.508 C 159.519 211.146 158.431 212.698 159.637 213.816 C 160.837 214.928 162.938 213.176 173.147 202.551 C 179.796 195.631 186.116 188.851 187.191 187.485 C 189.774 184.200 192.273 184.348 195.317 187.965 C 197.481 190.536 197.978 190.731 199.059 189.429 C 200.086 188.192 199.839 187.441 197.652 185.159 C 194.401 181.766 194.400 181.654 197.529 177.551 C 199.754 174.634 199.859 174.160 198.402 173.601 C 196.628 172.920 193.707 174.716 194.500 176.000 C 194.763 176.425 193.970 177.046 192.739 177.380 C 190.887 177.882 188.814 176.285 180.747 168.145 C 172.759 160.083 170.784 158.556 169.832 159.703 "/></g>
<g fill="#40240EFE">
<path d="M 572.366 276.250 L 572.500 295.500 576.250 295.810 L 580.000 296.121 580.000 276.560 L 580.000 257.000 576.116 257.000 L 572.232 257.000 572.366 276.250 "/></g>
<g fill="#98C894FE">
<path d="M 160.000 171.522 C 160.000 172.360 161.760 174.954 163.911 177.288 L 167.822 181.531 158.597 191.061 C 151.074 198.832 149.384 201.135 149.436 203.545 C 149.489 205.984 149.107 206.486 147.250 206.421 C 146.013 206.377 145.000 206.734 145.000 207.214 C 145.000 207.695 144.406 207.955 143.679 207.794 C 142.953 207.632 140.478 209.280 138.179 211.456 C 134.377 215.055 134.000 215.855 134.000 220.329 C 134.000 224.434 134.231 225.053 135.403 224.081 C 136.480 223.187 136.926 223.216 137.324 224.208 C 137.663 225.054 137.869 224.916 137.921 223.809 C 137.964 222.879 137.550 221.840 137.000 221.500 C 135.424 220.526 135.834 218.999 137.500 219.638 C 138.450 220.003 139.000 219.625 139.000 218.607 C 139.000 217.723 139.450 217.000 140.000 217.000 C 140.550 217.000 141.000 216.409 141.000 215.687 C 141.000 214.307 146.060 209.000 147.376 209.000 C 148.409 209.000 151.000 206.353 151.000 205.298 C 151.000 204.833 154.633 200.864 159.074 196.477 C 163.514 192.089 168.496 186.820 170.145 184.766 L 173.143 181.032 167.926 175.516 C 162.721 170.012 160.000 168.641 160.000 171.522 "/></g>
<g fill="#40240EFE">
<path d="M 1169.000 276.500 L 1169.000 296.000 1172.500 296.000 L 1176.000 296.000 1176.000 276.500 L 1176.000 257.000 1172.500 257.000 L 1169.000 257.000 1169.000 276.500 "/></g>
<g fill="#98C894FE">
<path d="M 173.035 255.934 C 171.309 259.160 171.864 262.523 174.537 265.035 C 176.985 267.335 177.069 267.816 176.928 278.841 C 176.847 285.124 176.472 289.763 176.093 289.151 C 175.668 288.463 172.998 290.466 169.114 294.385 C 162.975 300.579 162.885 300.745 165.424 301.230 C 167.612 301.649 168.977 300.711 174.013 295.327 L 180.000 288.927 180.000 278.358 C 180.000 268.468 180.165 267.593 182.569 264.736 C 186.862 259.634 184.120 254.000 177.344 254.000 C 175.131 254.000 173.735 254.627 173.035 255.934 M 180.804 259.878 C 180.597 261.665 179.824 262.596 178.377 262.803 C 175.560 263.205 174.465 260.249 176.570 257.923 C 178.781 255.480 181.185 256.590 180.804 259.878 "/></g>
<g fill="#40240EFE">
<path d="M 320.000 276.563 L 320.000 296.127 323.250 295.813 L 326.500 295.500 326.772 276.250 L 327.043 257.000 323.522 257.000 L 320.000 257.000 320.000 276.563 "/></g>
<g fill="#DCBA58FE">
<path d="M 144.250 181.459 L 133.000 192.913 133.015 202.706 C 133.032 213.393 133.798 216.153 136.010 213.488 C 136.859 212.466 137.257 209.757 137.105 206.041 C 136.974 202.829 137.306 199.929 137.842 199.598 C 138.379 199.266 140.012 200.414 141.472 202.149 C 143.812 204.930 144.300 205.128 145.602 203.827 C 146.903 202.525 146.807 202.064 144.789 199.925 C 143.530 198.591 141.626 196.469 140.559 195.210 L 138.617 192.920 148.450 183.050 C 155.300 176.174 158.098 172.698 157.673 171.590 C 157.337 170.716 156.711 170.001 156.281 170.003 C 155.852 170.004 150.438 175.160 144.250 181.459 "/></g>
<g fill="#DCBA58FE">
<path d="M 139.000 218.797 C 139.000 221.163 141.357 224.300 147.758 230.449 C 150.650 233.227 153.013 236.184 153.008 237.020 C 153.004 237.856 148.725 242.797 143.500 248.000 C 137.069 254.404 134.000 258.194 134.000 259.730 C 134.000 260.979 134.331 262.000 134.735 262.000 C 136.226 262.000 159.000 238.476 159.000 236.936 C 159.000 235.280 141.486 217.000 139.900 217.000 C 139.405 217.000 139.000 217.808 139.000 218.797 "/></g>
<g fill="#98C894FE">
<path d="M 204.000 195.000 C 204.000 196.100 204.900 197.900 206.000 199.000 C 207.100 200.100 208.000 201.367 208.000 201.816 C 208.000 202.264 203.725 206.824 198.500 211.948 C 193.275 217.072 189.000 221.350 189.000 221.455 C 189.000 221.560 186.750 224.055 184.000 227.000 C 178.703 232.672 178.185 233.750 180.354 234.582 C 181.150 234.888 184.587 232.091 188.689 227.801 C 192.528 223.785 199.789 216.202 204.825 210.948 L 213.980 201.396 209.702 197.198 C 204.889 192.475 204.000 192.132 204.000 195.000 "/></g>
<g fill="#98C894FE">
<path d="M 162.178 249.682 C 155.512 256.733 150.570 262.734 151.139 263.086 C 151.707 263.437 152.176 264.055 152.182 264.459 C 152.206 265.941 175.853 241.440 176.171 239.604 C 176.933 235.210 173.572 237.631 162.178 249.682 "/></g>
<g fill="#98C894FE">
<path d="M 133.000 143.190 C 133.000 145.037 136.108 148.856 144.901 157.817 C 154.988 168.095 156.990 169.717 158.035 168.458 C 159.066 167.215 157.501 165.180 148.442 155.987 C 140.617 148.046 137.367 145.348 136.714 146.251 C 136.073 147.137 135.964 147.019 136.338 145.844 C 136.631 144.924 136.006 143.410 134.933 142.439 C 133.071 140.755 133.000 140.782 133.000 143.190 "/></g>
<g fill="#98C894FE">
<path d="M 156.003 148.615 C 164.738 157.918 169.008 160.921 168.995 157.750 C 168.988 156.260 155.940 142.551 154.500 142.521 C 153.950 142.509 153.444 141.938 153.375 141.250 C 153.306 140.563 153.140 139.888 153.007 139.750 C 152.873 139.613 152.816 139.838 152.882 140.250 C 153.074 141.467 149.524 141.107 147.953 139.750 C 147.157 139.063 150.780 143.052 156.003 148.615 "/></g>
<g fill="#98C894FE">
<path d="M 137.000 231.031 C 137.000 231.564 136.438 231.888 135.750 231.750 C 134.903 231.581 134.401 233.228 134.194 236.858 L 133.888 242.215 138.444 237.945 C 143.390 233.309 144.212 231.481 140.875 232.540 C 139.558 232.958 138.985 232.833 139.369 232.212 C 139.710 231.661 139.316 230.952 138.494 230.636 C 137.672 230.321 137.000 230.499 137.000 231.031 "/></g>
<g fill="#98C894FE">
<path d="M 166.391 273.475 C 167.973 275.889 166.880 279.000 164.450 279.000 C 163.653 279.000 163.000 279.900 163.000 281.000 C 163.000 282.333 163.667 283.000 165.000 283.000 C 171.297 283.000 173.289 271.945 167.074 271.487 C 165.167 271.347 165.108 271.516 166.391 273.475 "/></g>
<g fill="#40240EFE">
<path d="M 1206.707 249.500 L 1203.915 253.000 1206.363 253.000 C 1207.709 253.000 1210.696 251.425 1213.000 249.500 L 1217.189 246.000 1213.345 246.000 C 1210.149 246.000 1209.028 246.591 1206.707 249.500 "/></g>
<g fill="#DCBA58FE">
<path d="M 162.639 162.586 C 160.260 165.448 159.992 166.285 161.044 167.553 C 162.156 168.893 162.655 168.747 165.155 166.352 C 168.032 163.596 169.052 158.939 166.750 159.072 C 166.063 159.112 164.213 160.693 162.639 162.586 "/></g>
<g fill="#98C894FE">
<path d="M 137.500 127.000 C 137.160 127.550 137.434 128.000 138.108 128.000 C 138.782 128.000 139.039 128.294 138.680 128.653 C 138.321 129.012 139.754 131.179 141.864 133.469 C 144.549 136.381 146.225 137.447 147.445 137.019 C 148.892 136.512 148.308 135.521 144.013 131.204 C 138.367 125.528 138.397 125.548 137.500 127.000 "/></g>
<g fill="#98C894FE">
<path d="M 151.396 219.336 C 149.830 220.683 148.984 222.165 149.399 222.836 C 151.049 225.506 154.676 223.278 155.480 219.102 C 156.006 216.371 154.760 216.442 151.396 219.336 "/></g>
<g fill="#DCBA58FE">
<path d="M 148.443 135.750 C 148.850 136.504 148.500 137.000 147.559 137.000 C 146.702 137.000 146.000 137.288 146.000 137.640 C 146.000 138.820 149.480 140.936 151.500 140.984 C 153.008 141.019 153.166 141.242 152.143 141.890 C 151.197 142.490 151.122 142.957 151.893 143.434 C 152.502 143.810 153.000 143.615 153.000 143.000 C 153.000 142.385 153.450 142.160 154.000 142.500 C 155.983 143.726 154.931 142.038 151.384 138.306 C 149.395 136.213 148.072 135.063 148.443 135.750 "/></g>
<g fill="#98C894FE">
<path d="M 158.639 273.014 C 157.251 279.681 157.242 281.044 158.593 279.923 C 159.319 279.320 160.375 279.114 160.941 279.464 C 162.062 280.157 161.320 274.627 159.941 272.014 C 159.338 270.872 159.037 271.103 158.639 273.014 "/></g>
<g fill="#52863AFE">
<path d="M 135.250 224.145 C 134.563 224.835 134.000 226.885 134.000 228.700 C 134.000 230.807 134.452 231.910 135.250 231.750 C 137.285 231.343 137.705 230.118 137.086 226.402 C 136.617 223.590 136.251 223.140 135.250 224.145 "/></g>
<g fill="#52863AFE">
<path d="M 145.115 204.549 C 143.803 205.932 143.040 207.373 143.419 207.752 C 143.798 208.132 144.422 208.005 144.804 207.471 C 145.187 206.937 146.355 206.500 147.400 206.500 C 148.603 206.500 149.427 205.674 149.644 204.250 C 150.100 201.265 148.105 201.397 145.115 204.549 "/></g>
<g fill="#52863AFE">
<path d="M 141.011 229.712 L 138.818 232.500 141.482 232.547 C 144.689 232.605 146.643 229.779 144.581 228.067 C 143.500 227.170 142.734 227.523 141.011 229.712 "/></g>
<g fill="#52863AFE">
<path d="M 160.505 270.992 C 160.168 271.538 160.352 272.775 160.915 273.742 C 161.479 274.709 162.005 275.050 162.085 274.500 C 162.383 272.458 162.700 271.522 162.848 272.250 C 162.931 272.663 163.702 273.000 164.559 273.000 C 165.416 273.000 165.843 272.555 165.507 272.011 C 165.157 271.445 165.558 271.277 166.448 271.618 C 167.302 271.946 168.000 271.716 168.000 271.107 C 168.000 269.733 161.346 269.631 160.505 270.992 "/></g>
<g fill="#DCBA58FE">
<path d="M 134.951 124.559 C 133.930 125.789 134.048 126.324 135.602 127.499 C 136.646 128.290 137.950 128.944 138.500 128.953 C 139.050 128.962 138.889 128.583 138.143 128.110 C 137.190 127.506 137.118 127.045 137.901 126.561 C 138.687 126.075 138.601 125.458 137.607 124.464 C 136.396 123.253 136.024 123.266 134.951 124.559 "/></g>
</svg>
