<?xml version="1.0" encoding="utf-8"?>
<!DOCTYPE svg PUBLIC "-//W3C//DTD SVG 20010904//EN" "http://www.w3.org/TR/2001/REC-SVG-20010904/DTD/svg10.dtd">
<svg version="1.0" xmlns="http://www.w3.org/2000/svg" width="1282pt" height="827pt" viewBox="0 0 1282 827" style="" preserveAspectRatio="xMidYMid meet">
<g fill="#518939FD">
<path d="M 634.000 17.949 C 634.000 18.562 633.037 19.421 631.861 19.856 C 626.968 21.666 579.230 69.560 562.568 89.375 C 509.414 152.586 478.085 212.812 466.787 273.500 C 464.829 284.018 464.552 288.836 464.542 312.500 C 464.532 336.589 464.773 340.686 466.778 350.500 C 478.181 406.310 508.721 448.845 565.767 488.369 C 570.339 491.537 574.542 493.783 575.171 493.394 C 575.810 492.999 576.036 493.132 575.688 493.696 C 574.268 495.993 622.920 521.012 626.291 519.719 C 628.248 518.967 630.523 490.125 629.594 477.827 C 628.856 468.039 625.937 452.481 623.342 444.500 C 617.635 426.946 602.579 404.815 587.322 391.559 C 573.270 379.348 550.317 356.317 542.725 346.809 C 535.141 337.311 528.548 326.778 524.987 318.469 C 520.372 307.703 515.154 289.513 516.340 288.326 C 516.652 288.015 518.652 291.527 520.786 296.130 C 533.117 322.728 552.944 344.731 590.500 373.496 C 601.152 381.654 618.467 398.844 622.000 404.768 C 623.375 407.074 625.265 409.217 626.199 409.531 C 627.135 409.846 627.659 410.726 627.365 411.490 C 627.072 412.254 627.354 413.693 627.992 414.689 C 629.094 416.411 629.122 416.408 628.558 414.623 C 628.232 413.591 628.462 412.148 629.068 411.418 C 629.821 410.511 630.224 398.550 630.336 373.794 L 630.500 337.500 627.672 327.000 C 621.658 304.671 617.290 297.243 595.278 271.902 C 586.964 262.331 578.040 251.395 575.447 247.600 C 565.326 232.784 558.922 216.075 557.489 200.750 C 556.640 191.663 558.148 190.167 560.009 198.250 C 561.855 206.267 568.696 221.725 573.707 229.199 C 578.786 236.776 588.517 247.728 598.528 257.135 C 608.252 266.272 622.374 282.359 627.819 290.500 L 632.500 297.500 633.133 269.000 C 634.683 199.249 636.231 98.999 636.360 60.088 C 636.469 26.949 636.227 17.584 635.250 17.255 C 634.563 17.023 634.000 17.335 634.000 17.949 "/></g>
<g fill="#D0B155FD">
<path d="M 646.000 54.337 C 646.000 77.072 646.295 110.035 646.655 127.587 L 647.309 159.500 657.911 170.500 C 663.741 176.550 677.265 190.500 687.963 201.500 C 698.661 212.500 708.479 222.729 709.780 224.232 L 712.147 226.964 707.084 232.317 L 702.021 237.671 704.500 240.000 L 706.978 242.328 711.169 237.664 C 713.474 235.099 716.019 233.000 716.823 233.000 C 718.786 233.000 743.500 258.833 743.500 260.885 C 743.500 261.773 744.295 263.093 745.267 263.818 C 746.238 264.544 746.731 265.627 746.360 266.226 C 745.911 266.953 746.485 267.106 748.089 266.687 C 750.030 266.179 751.403 266.957 755.246 270.742 C 757.860 273.317 760.000 275.875 760.000 276.425 C 760.000 277.814 751.838 286.000 750.452 286.000 C 749.830 286.000 748.808 287.125 748.182 288.500 C 747.555 289.875 746.583 291.000 746.021 291.000 C 745.460 291.000 745.000 291.491 745.000 292.091 C 745.000 292.690 738.475 299.972 730.500 308.272 C 722.189 316.922 716.000 324.176 716.000 325.268 C 716.000 326.316 718.700 329.985 722.000 333.421 C 725.300 336.858 728.000 339.946 728.000 340.283 C 728.000 341.318 732.403 345.614 734.103 346.237 C 735.880 346.888 754.000 366.490 754.000 367.761 C 754.000 368.202 751.352 371.183 748.116 374.385 C 743.548 378.906 741.776 380.064 740.193 379.561 C 737.446 378.690 719.799 360.134 720.555 358.912 C 721.183 357.895 717.229 354.090 715.485 354.033 C 713.687 353.974 690.225 329.587 689.477 327.000 C 688.434 323.389 687.175 322.141 685.116 322.680 C 683.879 323.003 682.029 321.703 679.276 318.577 C 674.959 313.672 672.198 312.852 670.290 315.907 C 669.252 317.570 669.741 318.455 674.122 322.837 C 678.441 327.156 678.995 328.141 678.073 329.864 C 676.529 332.749 676.577 332.812 681.250 334.036 C 684.682 334.934 687.761 337.392 697.250 346.808 C 703.713 353.222 709.000 358.790 709.000 359.183 C 709.000 360.253 713.594 365.000 714.629 365.000 C 716.227 365.000 736.788 386.433 737.162 388.489 C 737.360 389.582 738.418 390.632 739.511 390.822 C 742.033 391.260 774.000 422.949 774.000 425.011 C 774.000 425.854 772.720 428.109 771.156 430.022 C 769.593 431.935 768.009 434.738 767.637 436.250 C 767.240 437.868 766.282 439.000 765.310 439.000 C 762.757 439.000 760.154 441.871 760.725 444.057 C 761.073 445.387 762.101 446.000 763.986 446.000 C 766.173 446.000 767.939 444.561 772.564 439.007 C 784.146 425.104 797.000 405.746 797.000 402.208 C 797.000 401.281 789.964 393.477 781.366 384.865 C 767.837 371.317 765.819 368.891 766.382 366.854 C 766.740 365.559 771.751 359.588 777.517 353.583 C 787.875 342.797 789.610 339.832 786.307 338.564 C 785.056 338.084 781.466 341.056 772.543 349.957 C 765.903 356.581 760.205 362.000 759.881 362.000 C 758.789 362.000 739.504 341.936 739.177 340.460 C 738.999 339.657 738.169 339.000 737.333 339.000 C 736.497 339.000 735.577 338.100 735.290 337.000 C 735.002 335.900 734.197 335.000 733.500 335.000 C 731.760 335.000 725.000 327.366 725.000 325.402 C 725.000 324.526 730.513 318.118 737.250 311.163 C 750.782 297.193 754.250 294.000 755.894 294.000 C 756.502 294.000 757.000 293.230 757.000 292.288 C 757.000 290.284 764.817 282.000 766.708 282.000 C 767.419 282.000 768.000 281.580 768.000 281.067 C 768.000 280.554 768.900 279.849 770.000 279.500 C 771.100 279.151 772.000 278.039 772.000 277.029 C 772.000 276.020 773.984 273.012 776.408 270.347 L 780.816 265.500 796.658 281.000 C 805.371 289.525 812.806 297.175 813.180 298.000 C 813.554 298.825 813.891 301.017 813.930 302.872 C 813.990 305.759 812.878 307.415 806.209 314.372 C 792.542 328.631 790.727 330.966 792.060 332.572 C 794.764 335.830 797.522 333.670 814.938 314.657 L 820.290 308.813 819.717 298.157 C 819.002 284.868 816.220 266.992 814.557 265.000 C 812.765 262.854 811.894 260.000 813.031 260.000 C 813.564 260.000 813.991 258.988 813.980 257.750 C 813.946 253.901 809.285 237.085 807.496 234.354 L 805.795 231.757 798.811 238.629 C 794.970 242.408 791.417 246.540 790.916 247.810 C 790.414 249.081 789.649 249.901 789.217 249.634 C 788.784 249.366 786.645 250.910 784.465 253.064 C 780.391 257.087 776.607 260.715 769.689 267.226 C 767.512 269.275 765.285 270.676 764.739 270.339 C 763.370 269.493 756.580 261.972 756.148 260.822 C 755.647 259.493 751.050 255.000 750.191 255.000 C 749.796 255.000 743.471 248.987 736.136 241.637 C 727.731 233.214 722.930 227.667 723.150 226.634 C 723.343 225.732 735.650 212.540 750.500 197.318 C 766.756 180.655 777.415 168.975 777.287 167.965 C 777.036 165.988 767.419 149.077 761.667 140.500 C 740.680 109.205 716.004 79.510 682.011 44.641 C 668.448 30.729 648.822 13.000 646.984 13.000 C 646.355 13.000 646.000 27.904 646.000 54.337 M 700.384 73.003 L 704.000 77.006 704.000 90.349 L 704.000 103.693 707.750 107.528 C 715.274 115.221 716.000 116.727 716.000 124.626 C 716.000 131.487 715.848 131.972 713.072 133.949 C 709.016 136.837 707.478 141.814 709.296 146.164 C 711.141 150.579 713.103 152.070 717.913 152.715 C 721.392 153.182 722.294 152.860 724.952 150.202 C 729.680 145.474 729.022 138.221 723.435 133.485 C 721.496 131.842 720.934 130.138 720.385 124.235 C 719.912 119.142 719.311 117.000 718.356 117.000 C 717.610 117.000 717.000 116.325 717.000 115.500 C 717.000 114.675 717.498 114.000 718.108 114.000 C 718.717 114.000 716.757 111.345 713.753 108.100 C 710.486 104.571 708.031 100.903 707.645 98.975 C 706.403 92.766 707.204 84.000 709.012 84.000 C 710.110 84.000 725.443 101.855 733.364 112.357 L 740.000 121.156 740.000 141.651 L 740.000 162.147 731.768 171.073 C 725.310 178.076 722.953 180.000 720.833 180.000 C 714.369 180.000 709.012 185.130 709.004 191.327 C 708.998 195.770 713.858 200.000 718.969 200.000 C 725.026 200.000 728.000 196.708 728.000 190.001 C 728.000 184.983 728.118 184.787 736.550 175.891 C 741.252 170.929 745.527 165.744 746.050 164.369 C 746.572 162.995 747.000 155.626 747.000 147.994 C 747.000 140.362 747.400 133.871 747.889 133.569 C 748.378 133.267 749.872 134.478 751.210 136.260 C 755.467 141.929 770.000 165.887 769.991 167.219 C 769.981 168.546 762.303 176.692 734.129 205.266 C 725.037 214.488 717.337 221.913 717.018 221.766 C 715.584 221.108 685.000 189.185 685.000 188.347 C 685.000 187.829 686.706 185.740 688.792 183.703 C 691.623 180.939 693.615 179.901 696.655 179.608 C 704.215 178.880 707.000 176.092 707.000 169.254 C 707.000 162.862 702.179 159.181 695.456 160.442 C 691.384 161.206 688.000 165.181 688.000 169.201 C 688.000 170.813 687.495 173.114 686.878 174.316 C 685.332 177.325 680.861 182.000 679.529 182.000 C 678.925 182.000 676.022 179.560 673.076 176.577 L 667.721 171.154 669.610 168.677 C 670.650 167.315 676.563 160.772 682.750 154.138 L 694.000 142.076 694.000 105.538 C 694.000 64.910 693.834 65.754 700.384 73.003 M 679.000 50.448 L 687.500 59.043 687.838 98.949 L 688.175 138.855 683.892 143.677 C 676.035 152.524 663.556 165.000 662.564 165.000 C 660.925 165.000 654.000 157.705 654.000 155.978 C 654.000 155.090 658.255 149.668 663.456 143.931 C 674.771 131.448 674.581 132.145 673.605 106.882 L 672.921 89.175 676.210 86.100 C 679.069 83.429 679.487 82.412 679.400 78.341 C 679.316 74.410 678.792 73.203 676.134 70.829 C 671.533 66.717 667.124 66.956 663.104 71.535 C 659.614 75.509 659.119 79.395 661.510 84.020 C 662.341 85.626 663.916 87.420 665.010 88.006 C 666.898 89.016 667.000 90.130 667.000 109.816 L 667.000 130.563 661.221 136.281 C 658.043 139.427 654.893 142.000 654.221 142.000 C 653.286 142.000 652.996 134.786 652.985 111.250 C 652.976 94.338 652.719 68.697 652.413 54.271 C 652.106 39.845 652.149 27.567 652.508 26.987 C 653.212 25.848 664.970 36.261 679.000 50.448 M 774.795 387.327 C 782.608 395.208 789.000 402.044 789.000 402.519 C 789.000 404.112 780.852 417.119 779.540 417.623 C 778.395 418.062 748.044 388.347 747.170 385.932 C 746.749 384.769 757.922 373.000 759.447 373.000 C 760.075 373.000 766.982 379.447 774.795 387.327 M 805.403 245.471 C 806.253 248.855 811.998 282.197 811.999 283.750 C 812.001 286.011 809.449 285.058 806.015 281.515 C 804.157 279.598 802.381 278.286 802.068 278.598 C 801.756 278.911 801.500 278.751 801.500 278.243 C 801.500 277.735 798.238 273.701 794.250 269.277 C 790.263 264.854 787.000 260.902 787.000 260.495 C 787.000 259.535 803.132 243.000 804.069 243.000 C 804.462 243.000 805.062 244.112 805.403 245.471 M 721.464 139.960 C 725.099 143.977 720.802 149.570 716.038 147.020 C 713.597 145.714 713.351 141.792 715.571 139.571 C 717.662 137.481 719.319 137.590 721.464 139.960 M 721.800 187.200 C 723.442 188.842 723.310 192.498 721.555 193.954 C 719.451 195.700 715.840 194.834 714.934 192.365 C 713.376 188.125 718.711 184.111 721.800 187.200 M 700.429 166.571 C 702.342 168.485 702.414 170.052 700.694 172.404 C 698.637 175.217 694.574 174.149 694.178 170.690 C 693.615 165.780 697.245 163.388 700.429 166.571 M 672.989 75.487 C 674.944 77.842 673.421 82.000 670.603 82.000 C 667.112 82.000 665.434 79.539 666.832 76.470 C 668.091 73.706 671.111 73.224 672.989 75.487 "/></g>
<g fill="#045928FD">
<path d="M 434.535 585.665 C 433.643 590.420 434.968 724.298 435.916 725.286 C 436.331 725.718 441.583 725.943 447.586 725.786 L 458.500 725.500 458.772 706.637 C 458.976 692.582 459.397 687.272 460.424 685.805 C 463.499 681.414 480.236 664.000 481.381 664.000 C 482.057 664.000 488.622 671.988 495.969 681.750 C 524.376 719.496 528.850 724.883 532.306 725.507 C 534.063 725.824 545.383 725.952 557.462 725.792 L 579.425 725.500 580.728 723.000 C 581.445 721.625 584.554 714.425 587.638 707.000 C 590.722 699.575 593.700 692.932 594.256 692.237 C 595.042 691.255 602.819 691.033 629.236 691.237 L 663.205 691.500 667.593 702.000 C 670.006 707.775 672.886 714.300 673.993 716.500 C 675.100 718.700 676.004 721.030 676.003 721.679 C 676.001 722.327 676.707 723.564 677.571 724.429 C 678.824 725.681 681.561 726.000 691.071 726.000 C 698.357 726.000 703.000 725.611 703.000 725.000 C 703.000 724.450 701.988 723.948 700.750 723.884 C 699.057 723.797 698.933 723.655 700.250 723.311 C 701.213 723.059 702.000 722.728 702.000 722.576 C 702.000 722.041 688.782 691.481 687.694 689.500 C 687.090 688.400 686.507 687.050 686.398 686.500 C 686.194 685.467 668.554 644.359 664.514 635.500 C 663.260 632.750 658.307 621.275 653.507 610.000 C 648.708 598.725 643.921 587.813 642.870 585.750 L 640.959 582.000 628.643 582.000 L 616.327 582.000 613.711 587.250 C 610.066 594.564 606.885 602.997 607.765 603.015 C 608.169 603.024 607.976 603.364 607.336 603.771 C 605.472 604.957 591.747 637.119 591.599 640.647 C 591.545 641.946 591.150 642.894 590.723 642.754 C 589.983 642.512 585.004 653.639 574.507 679.000 C 571.889 685.325 568.932 692.300 567.936 694.500 C 566.940 696.700 565.458 700.075 564.643 702.000 C 563.827 703.925 561.509 709.100 559.490 713.500 L 555.820 721.500 552.926 718.000 C 544.746 708.110 497.958 645.634 498.209 644.937 C 498.369 644.490 507.704 634.141 518.953 621.939 C 530.202 609.737 540.255 598.674 541.293 597.354 C 542.331 596.035 545.840 592.388 549.090 589.249 C 552.341 586.111 555.000 583.196 555.000 582.771 C 555.000 582.347 549.038 582.010 541.750 582.022 C 530.695 582.041 528.152 582.331 526.400 583.772 C 524.186 585.594 480.751 631.759 468.059 645.780 C 463.967 650.301 460.260 654.000 459.822 654.000 C 459.384 654.000 458.907 637.913 458.763 618.250 L 458.500 582.500 446.846 582.334 L 435.191 582.167 434.535 585.665 M 631.802 614.500 C 634.398 621.142 643.714 643.828 649.419 657.398 C 651.938 663.391 654.000 668.904 654.000 669.648 C 654.000 670.748 649.337 671.000 628.969 671.000 C 607.430 671.000 603.855 670.787 603.350 669.471 C 603.028 668.630 603.999 665.143 605.510 661.721 C 608.781 654.310 618.924 629.735 623.349 618.500 C 628.278 605.987 628.444 605.908 631.802 614.500 "/></g>
<g fill="#045928FD">
<path d="M 1103.657 594.090 C 1102.820 609.657 1102.793 718.715 1103.625 722.875 L 1104.250 726.000 1115.656 726.000 C 1124.610 726.000 1127.180 725.693 1127.610 724.574 C 1127.911 723.789 1128.234 714.002 1128.329 702.824 L 1128.500 682.500 1136.500 681.702 C 1147.131 680.641 1163.507 681.346 1165.438 682.949 C 1166.271 683.640 1169.528 688.096 1172.677 692.853 C 1175.826 697.609 1178.761 701.650 1179.201 701.833 C 1179.640 702.017 1180.000 702.611 1180.000 703.154 C 1180.000 704.944 1193.032 723.947 1194.971 724.984 C 1197.335 726.250 1222.000 726.340 1222.000 725.083 C 1222.000 724.579 1221.600 724.017 1221.110 723.833 C 1220.621 723.650 1217.039 718.550 1213.150 712.500 C 1204.712 699.373 1198.835 690.645 1193.750 683.686 C 1191.688 680.863 1190.000 678.069 1190.000 677.476 C 1190.000 676.883 1192.025 675.415 1194.500 674.212 C 1196.975 673.010 1199.000 671.570 1199.000 671.013 C 1199.000 670.456 1199.469 670.000 1200.042 670.000 C 1200.615 670.000 1201.803 669.438 1202.682 668.750 C 1214.900 659.188 1220.734 642.448 1218.292 623.954 C 1215.729 604.544 1203.698 591.468 1182.202 584.731 C 1176.037 582.798 1172.649 582.600 1139.907 582.248 L 1104.315 581.866 1103.657 594.090 M 1168.000 604.044 C 1177.345 605.523 1184.435 609.256 1188.533 614.857 C 1193.447 621.572 1194.644 627.933 1192.992 638.550 C 1192.262 643.247 1191.220 647.364 1190.677 647.699 C 1190.096 648.059 1190.012 647.790 1190.472 647.045 C 1190.902 646.350 1188.834 648.261 1185.877 651.293 C 1177.780 659.595 1172.300 661.000 1148.020 661.000 L 1129.250 661.000 1128.625 657.875 C 1128.281 656.156 1128.000 643.579 1128.000 629.925 C 1128.000 607.337 1128.158 605.008 1129.750 604.080 C 1132.040 602.746 1159.634 602.720 1168.000 604.044 "/></g>
<g fill="#045928FD">
<path d="M 998.279 583.220 C 997.720 583.924 991.520 598.000 984.500 614.500 C 977.481 631.000 964.374 661.736 955.375 682.801 C 946.375 703.867 938.732 722.219 938.390 723.583 L 937.767 726.063 950.030 725.782 L 962.293 725.500 965.699 717.500 C 967.572 713.100 970.656 705.702 972.551 701.060 C 974.446 696.418 976.560 692.263 977.248 691.825 C 977.937 691.388 993.407 691.024 1011.628 691.015 C 1036.926 691.004 1045.000 691.295 1045.790 692.250 C 1046.359 692.938 1048.170 696.875 1049.813 701.000 C 1054.603 713.023 1059.986 724.371 1061.292 725.202 C 1062.765 726.138 1084.402 726.264 1085.325 725.342 C 1085.687 724.980 1085.596 724.193 1085.124 723.592 C 1084.651 722.991 1083.493 720.134 1082.549 717.242 C 1081.493 714.003 1080.417 712.242 1079.747 712.656 C 1079.054 713.084 1078.892 712.724 1079.299 711.664 C 1079.663 710.714 1079.450 710.000 1078.802 710.000 C 1078.178 710.000 1077.928 709.738 1078.248 709.418 C 1078.844 708.823 1077.550 705.312 1073.487 696.500 C 1072.219 693.750 1067.935 683.850 1063.966 674.500 C 1059.997 665.150 1056.469 657.275 1056.125 657.000 C 1055.781 656.725 1055.352 655.830 1055.170 655.011 C 1054.887 653.733 1048.703 639.048 1044.427 629.500 C 1043.688 627.850 1039.758 618.744 1035.693 609.265 C 1031.628 599.786 1027.986 592.348 1027.598 592.735 C 1027.211 593.122 1027.138 592.778 1027.435 591.970 C 1027.733 591.161 1026.956 588.700 1025.708 586.500 L 1023.440 582.500 1011.367 582.220 C 1002.477 582.015 999.026 582.278 998.279 583.220 M 1015.796 618.000 C 1017.516 622.125 1021.688 632.250 1025.066 640.500 C 1028.445 648.750 1032.533 658.547 1034.150 662.272 C 1035.768 665.996 1036.819 669.484 1036.487 670.022 C 1035.832 671.080 986.776 671.443 985.731 670.397 C 985.399 670.066 985.515 668.828 985.989 667.647 C 986.462 666.466 990.757 656.050 995.532 644.500 C 1000.307 632.950 1005.588 619.988 1007.268 615.696 C 1010.821 606.613 1011.075 606.682 1015.796 618.000 "/></g>
<g fill="#3D2108FD">
<path d="M 261.255 581.569 C 236.002 587.103 215.414 605.786 207.333 630.500 C 203.476 642.298 202.930 659.244 206.012 671.553 C 212.440 697.230 230.204 716.172 255.500 724.322 C 272.679 729.857 298.103 728.930 316.000 722.117 C 319.025 720.966 324.988 717.784 329.250 715.046 L 337.000 710.069 337.000 682.034 L 337.000 654.000 324.641 654.000 L 312.282 654.000 311.591 674.750 C 310.803 698.416 311.300 697.152 301.209 701.147 C 293.620 704.152 273.348 704.495 265.500 701.753 C 262.750 700.792 260.100 700.043 259.612 700.088 C 259.123 700.134 258.448 699.771 258.112 699.283 C 257.775 698.794 255.846 697.390 253.825 696.162 C 248.470 692.909 239.587 682.907 236.627 676.798 C 228.972 660.995 229.197 643.202 237.231 629.055 C 247.667 610.679 267.725 600.886 288.875 603.840 C 298.733 605.218 308.774 609.592 316.995 616.090 L 322.100 620.126 330.050 612.390 C 334.423 608.135 338.000 604.101 338.000 603.427 C 338.000 602.752 335.471 599.889 332.380 597.064 C 325.595 590.863 311.452 583.819 301.303 581.584 C 292.400 579.625 270.167 579.616 261.255 581.569 "/></g>
<g fill="#3D2108FD">
<path d="M 48.233 581.884 C 31.632 586.073 18.794 596.258 13.936 609.094 C 10.359 618.544 10.544 630.353 14.391 638.200 C 20.142 649.930 32.517 657.940 52.500 662.867 C 78.405 669.253 87.456 672.302 92.046 676.191 C 99.556 682.552 98.404 694.743 89.797 699.977 C 82.157 704.623 66.277 706.140 51.978 703.588 C 41.332 701.688 25.681 695.198 19.846 690.263 C 18.354 689.001 17.740 689.817 13.596 698.566 C 11.068 703.902 9.000 708.860 9.000 709.583 C 9.000 713.140 24.068 720.900 38.296 724.671 C 49.468 727.632 69.874 728.824 80.597 727.142 C 102.543 723.701 116.339 714.400 122.019 699.219 C 125.338 690.348 125.659 682.530 123.057 673.963 C 121.161 667.718 120.012 665.852 114.952 660.792 C 107.385 653.225 97.458 648.599 78.000 643.573 C 48.075 635.844 41.148 632.564 38.900 625.062 C 37.322 619.794 39.709 613.210 44.683 609.110 C 56.639 599.255 87.628 600.902 105.773 612.357 L 109.772 614.881 113.978 604.699 C 116.833 597.787 117.902 594.031 117.305 593.008 C 116.097 590.936 102.803 584.471 95.500 582.403 C 86.216 579.773 57.832 579.462 48.233 581.884 "/></g>
<g fill="#045928FD">
<path d="M 721.460 583.250 C 721.197 583.938 721.099 616.225 721.241 655.000 L 721.500 725.500 770.000 725.500 L 818.500 725.500 818.500 715.000 L 818.500 704.500 783.500 704.731 C 764.250 704.857 747.825 704.750 747.000 704.493 C 745.684 704.082 745.533 696.526 745.765 643.012 L 746.030 582.000 733.984 582.000 C 725.268 582.000 721.805 582.346 721.460 583.250 "/></g>
<g fill="#045928FD">
<path d="M 838.460 583.250 C 838.197 583.938 838.099 616.225 838.241 655.000 L 838.500 725.500 887.000 725.762 L 935.500 726.023 935.000 715.262 L 934.500 704.500 901.500 704.769 C 883.350 704.916 867.150 704.805 865.500 704.520 L 862.500 704.004 862.780 645.252 C 862.935 612.938 862.814 585.488 862.511 584.250 C 861.981 582.079 861.559 582.000 850.450 582.000 C 842.161 582.000 838.804 582.350 838.460 583.250 "/></g>
<g fill="#3D2108FD">
<path d="M 151.000 654.030 L 151.000 726.060 163.750 725.780 L 176.500 725.500 176.757 653.750 L 177.013 582.000 164.007 582.000 L 151.000 582.000 151.000 654.030 "/></g>
<g fill="#045928FD">
<path d="M 1245.243 653.750 L 1245.500 725.500 1257.500 725.500 L 1269.500 725.500 1269.757 653.750 L 1270.013 582.000 1257.500 582.000 L 1244.987 582.000 1245.243 653.750 "/></g>
<g fill="#94B885FD">
<path d="M 702.618 367.881 C 698.024 372.511 696.232 374.940 697.144 375.303 C 697.952 375.624 697.642 375.874 696.377 375.921 C 695.176 375.966 692.404 378.061 689.989 380.750 C 687.643 383.363 678.473 392.848 669.612 401.829 C 660.750 410.810 653.500 418.529 653.500 418.983 C 653.500 419.436 652.193 421.019 650.595 422.499 L 647.690 425.191 648.342 443.846 C 648.701 454.106 649.040 472.625 649.097 485.000 C 649.153 497.375 649.523 506.375 649.919 505.000 C 650.524 502.895 650.727 503.258 651.202 507.299 C 651.839 512.728 652.682 514.116 654.039 511.971 C 654.737 510.868 654.973 510.830 654.985 511.821 C 655.006 513.675 652.221 516.255 651.008 515.505 C 650.431 515.148 650.000 515.977 650.000 517.441 C 650.000 520.084 650.842 520.417 654.835 519.348 C 656.578 518.881 656.831 518.508 655.835 517.877 C 654.946 517.313 655.575 517.026 657.719 517.015 C 660.295 517.003 660.811 516.671 660.304 515.350 C 659.773 513.967 660.130 513.816 662.513 514.414 C 664.858 515.002 668.472 513.588 683.177 506.330 C 692.980 501.491 701.000 496.976 701.000 496.297 C 701.000 495.557 701.666 495.318 702.664 495.701 C 703.880 496.168 704.105 495.979 703.500 495.000 C 702.908 494.042 703.112 493.829 704.217 494.253 C 706.882 495.276 718.000 486.684 718.000 483.601 C 718.000 482.889 719.013 481.817 720.250 481.220 L 722.500 480.135 720.250 480.068 C 718.168 480.005 718.000 479.541 718.000 473.863 L 718.000 467.726 724.750 460.186 L 731.500 452.647 732.000 425.984 L 732.500 399.321 735.345 395.219 C 737.926 391.499 738.267 388.099 735.915 389.553 C 735.394 389.875 735.269 390.627 735.638 391.224 C 736.010 391.825 735.849 392.025 735.278 391.672 C 734.712 391.322 732.954 392.900 731.374 395.179 L 728.500 399.322 728.000 426.134 L 727.500 452.947 721.019 459.483 L 714.538 466.020 714.157 473.572 C 713.851 479.629 713.402 481.357 711.888 482.302 C 710.849 482.951 710.000 484.074 710.000 484.800 C 710.000 485.525 709.566 485.850 709.035 485.522 C 708.504 485.194 706.280 486.110 704.093 487.557 C 701.905 489.005 699.664 489.910 699.111 489.569 C 698.523 489.205 698.090 483.412 698.066 475.601 L 698.026 462.254 701.559 457.627 C 704.757 453.438 705.170 451.230 702.200 454.200 C 701.267 455.133 700.972 455.133 700.875 454.200 C 700.806 453.540 700.694 452.611 700.625 452.135 C 700.427 450.769 696.716 452.549 694.273 455.180 C 692.162 457.455 692.033 458.533 691.773 476.040 L 691.500 494.500 685.500 497.722 C 682.200 499.494 679.234 500.956 678.908 500.972 C 678.583 500.987 678.042 488.288 677.706 472.752 C 677.022 441.103 676.491 443.840 684.986 435.250 C 689.427 430.760 690.726 430.000 693.955 430.000 C 701.469 430.000 706.506 422.541 703.634 415.666 C 700.946 409.234 693.396 407.887 687.842 412.850 C 684.975 415.412 684.664 416.234 684.772 420.978 C 684.892 426.241 684.873 426.276 677.946 433.053 L 671.000 439.849 671.000 472.487 L 671.000 505.125 664.369 508.132 C 659.724 510.238 657.423 510.823 656.685 510.085 C 656.007 509.407 655.580 499.492 655.486 482.266 C 655.406 467.545 655.178 449.096 654.979 441.268 C 654.635 427.741 654.725 426.921 656.808 424.704 C 658.014 423.421 659.000 421.575 659.000 420.602 C 659.000 419.629 659.499 419.000 660.108 419.203 C 661.733 419.744 668.397 413.363 667.066 412.541 C 666.330 412.086 666.294 411.320 666.957 410.183 C 667.497 409.257 668.001 408.725 668.076 409.000 C 668.151 409.275 668.130 408.263 668.031 406.750 C 667.885 404.540 668.275 404.000 670.018 404.000 C 671.346 404.000 672.390 403.225 672.710 402.000 C 672.998 400.900 673.518 399.943 673.867 399.872 C 676.819 399.277 679.000 399.438 679.000 400.249 C 679.000 401.437 692.447 388.346 702.024 377.835 C 706.297 373.146 709.090 369.188 709.218 367.640 C 709.374 365.748 709.740 365.370 710.670 366.141 C 712.895 367.988 714.100 366.083 712.374 363.448 C 711.492 362.102 710.472 361.000 710.108 361.000 C 709.744 361.000 706.373 364.097 702.618 367.881 M 698.393 418.250 C 700.001 420.816 697.956 423.500 694.391 423.500 C 691.946 423.500 691.449 423.054 691.170 420.609 C 690.648 416.037 695.925 414.314 698.393 418.250 "/></g>
<g fill="#3D2108FD">
<path d="M 1175.500 766.397 C 1169.929 768.940 1163.628 775.325 1161.227 780.860 C 1160.275 783.055 1159.654 787.305 1159.661 791.564 C 1159.672 797.449 1160.161 799.530 1162.587 804.029 C 1176.161 829.193 1216.361 819.874 1216.185 791.604 C 1216.142 784.759 1215.052 781.192 1211.364 775.830 C 1204.150 765.344 1187.439 760.948 1175.500 766.397 M 1198.760 775.641 C 1203.291 779.245 1207.004 786.155 1206.990 790.962 C 1206.979 795.013 1203.209 803.679 1200.355 806.212 C 1190.977 814.537 1176.286 811.191 1170.890 799.500 C 1167.464 792.078 1168.961 783.106 1174.559 777.508 C 1180.943 771.123 1192.007 770.270 1198.760 775.641 "/></g>
<g fill="#3D2108FD">
<path d="M 802.000 791.519 L 802.000 818.214 817.250 817.818 C 833.903 817.385 837.967 816.302 844.893 810.449 C 855.286 801.666 855.766 783.129 845.861 773.095 C 839.586 766.738 835.428 765.566 817.750 765.174 L 802.000 764.824 802.000 791.519 M 830.477 773.115 C 833.966 774.084 838.943 778.222 842.506 783.117 C 844.106 785.315 843.577 796.125 841.705 799.500 C 837.044 807.902 832.139 810.219 819.914 809.793 L 811.500 809.500 811.225 792.035 C 811.074 782.429 811.173 773.992 811.444 773.285 C 812.069 771.657 824.814 771.543 830.477 773.115 "/></g>
<g fill="#94B885FD">
<path d="M 780.101 190.762 C 776.582 194.468 766.933 204.355 758.659 212.734 L 743.615 227.969 751.907 236.464 L 760.200 244.960 756.850 249.068 C 751.545 255.573 751.493 255.684 752.930 257.416 C 754.910 259.801 756.221 259.382 760.500 255.000 C 762.648 252.800 765.087 251.000 765.919 251.000 C 766.751 251.000 769.540 253.077 772.117 255.615 L 776.803 260.231 778.520 257.610 C 780.433 254.690 780.329 254.447 774.376 248.000 L 771.145 244.500 783.642 231.620 C 792.933 222.045 796.430 219.030 797.270 219.870 C 801.421 224.021 802.219 217.477 798.663 208.440 C 795.198 199.634 787.800 183.998 787.105 184.012 C 786.772 184.018 783.621 187.056 780.101 190.762 M 789.759 204.297 L 793.324 212.094 780.412 225.404 C 773.311 232.724 766.899 238.778 766.164 238.857 C 764.699 239.014 753.831 228.002 754.244 226.779 C 754.915 224.794 783.669 196.187 784.847 196.333 C 785.588 196.425 787.798 200.009 789.759 204.297 "/></g>
<g fill="#3D2108FD">
<path d="M 622.000 791.500 L 622.000 818.000 626.458 818.000 L 630.916 818.000 631.208 810.250 L 631.500 802.500 638.597 802.209 L 645.694 801.919 650.973 809.959 L 656.252 818.000 661.233 818.000 C 667.187 818.000 667.183 817.971 659.886 807.938 L 654.664 800.759 658.862 797.271 C 661.171 795.353 663.722 792.505 664.530 790.942 C 667.891 784.443 665.209 773.372 659.273 769.237 C 654.304 765.776 650.012 765.000 635.851 765.000 L 622.000 765.000 622.000 791.500 M 652.827 775.333 C 656.539 778.891 657.427 783.041 655.477 787.710 C 653.168 793.234 651.593 793.933 641.357 793.968 C 630.649 794.005 631.000 794.377 631.000 783.000 C 631.000 771.447 630.718 771.750 641.079 772.156 C 649.140 772.471 650.117 772.735 652.827 775.333 "/></g>
<g fill="#3D2108FD">
<path d="M 230.799 781.750 C 230.516 790.963 230.332 802.775 230.392 808.000 L 230.500 817.500 234.398 817.819 C 236.801 818.016 238.601 817.646 239.090 816.854 C 239.527 816.148 239.615 808.692 239.287 800.285 C 238.789 787.540 238.924 785.001 240.095 785.004 C 240.868 785.006 245.091 791.100 249.481 798.548 C 259.909 816.241 259.605 816.249 270.044 798.000 C 274.292 790.575 278.157 784.612 278.633 784.748 C 279.110 784.884 279.623 792.422 279.774 801.498 L 280.048 818.000 284.524 818.000 L 289.000 818.000 288.993 798.250 C 288.989 787.388 288.699 775.463 288.348 771.750 L 287.711 765.000 284.105 765.003 L 280.500 765.006 270.899 781.753 C 265.618 790.964 260.668 798.612 259.899 798.748 C 259.062 798.897 256.362 795.282 253.178 789.748 C 238.907 764.947 238.946 765.000 234.951 765.000 L 231.315 765.000 230.799 781.750 "/></g>
<g fill="#94B885FD">
<path d="M 648.026 187.855 C 648.001 192.099 648.339 192.560 661.223 205.855 C 668.496 213.360 676.299 221.300 678.563 223.500 C 680.828 225.700 685.714 230.724 689.422 234.664 C 695.108 240.707 696.003 242.126 695.144 243.732 C 694.244 245.412 694.441 245.593 696.812 245.272 C 699.132 244.959 701.519 246.941 714.250 259.755 C 722.363 267.920 729.000 275.164 729.000 275.853 C 729.000 277.236 721.636 285.292 700.735 306.772 C 692.778 314.950 687.094 321.569 687.423 322.272 C 687.740 322.947 688.276 324.288 688.616 325.250 C 688.955 326.213 689.551 327.000 689.939 327.000 C 690.689 327.000 698.171 319.328 719.930 296.246 C 727.317 288.411 733.794 282.000 734.323 282.000 C 734.852 282.000 737.504 284.218 740.214 286.929 C 745.082 291.796 745.167 291.833 747.071 289.929 C 749.823 287.177 749.511 285.905 745.000 281.500 C 742.800 279.352 741.000 277.012 741.000 276.300 C 741.000 275.588 742.627 273.204 744.616 271.003 C 746.705 268.691 747.652 267.000 746.857 267.000 C 746.100 267.000 744.885 266.046 744.157 264.879 C 742.846 262.781 742.793 262.797 739.124 266.379 C 737.084 268.371 734.978 270.000 734.443 270.000 C 732.672 270.000 708.000 244.507 708.000 242.677 C 708.000 241.668 707.536 241.169 706.941 241.536 C 706.357 241.897 692.902 229.018 676.967 212.845 L 648.052 183.500 648.026 187.855 "/></g>
<g fill="#3D2108FD">
<path d="M 1227.505 777.917 C 1227.109 785.021 1227.114 796.946 1227.514 804.417 L 1228.241 818.000 1232.621 818.000 L 1237.000 818.000 1237.000 800.417 C 1237.000 790.576 1237.391 782.980 1237.889 783.167 C 1238.378 783.350 1244.741 790.925 1252.029 800.000 C 1259.317 809.075 1265.779 816.831 1266.390 817.235 C 1267.000 817.639 1268.963 817.976 1270.750 817.985 L 1274.000 818.000 1274.000 791.500 L 1274.000 765.000 1269.500 765.000 L 1265.000 765.000 1265.000 782.000 C 1265.000 791.755 1264.606 799.000 1264.074 799.000 C 1263.234 799.000 1253.526 787.579 1240.488 771.254 C 1236.016 765.653 1235.124 765.007 1231.862 765.004 L 1228.223 765.000 1227.505 777.917 "/></g>
<g fill="#3D2108FD">
<path d="M 688.186 776.750 C 685.411 783.213 680.455 794.188 677.173 801.140 C 668.641 819.210 668.775 818.172 675.020 817.805 L 680.211 817.500 682.030 812.693 C 684.996 804.859 684.682 805.000 699.158 805.000 L 712.071 805.000 714.034 809.750 C 715.114 812.363 716.382 815.175 716.851 816.000 C 717.806 817.677 727.000 818.722 727.000 817.153 C 727.000 816.305 722.190 805.746 707.454 774.250 L 703.127 765.000 698.179 765.000 L 693.232 765.000 688.186 776.750 M 703.761 785.790 C 706.092 791.175 708.000 796.125 708.000 796.790 C 708.000 797.652 705.265 798.000 698.500 798.000 C 692.957 798.000 689.000 797.591 689.000 797.019 C 689.000 794.729 697.375 776.000 698.399 776.000 C 699.017 776.000 701.429 780.406 703.761 785.790 "/></g>
<g fill="#3D2108FD">
<path d="M 406.000 791.500 L 406.000 818.000 410.500 818.000 L 415.000 818.000 415.000 800.417 C 415.000 788.070 415.328 782.943 416.100 783.200 C 416.706 783.402 423.343 791.202 430.850 800.533 C 444.337 817.297 444.551 817.504 448.750 817.807 L 453.000 818.115 453.000 791.557 L 453.000 765.000 448.500 765.000 L 444.000 765.000 444.000 781.941 C 444.000 791.393 443.586 799.138 443.063 799.461 C 442.548 799.779 435.688 792.156 427.818 782.520 C 413.900 765.479 413.406 765.000 409.754 765.000 L 406.000 765.000 406.000 791.500 "/></g>
<g fill="#3D2108FD">
<path d="M 311.554 782.204 C 307.267 791.717 302.058 803.550 299.979 808.500 L 296.199 817.500 301.009 817.799 L 305.820 818.098 307.984 812.312 C 309.175 809.130 310.600 806.247 311.150 805.907 C 311.701 805.567 317.915 805.219 324.959 805.134 L 337.766 804.979 340.533 811.490 L 343.300 818.000 348.233 818.000 C 350.947 818.000 353.017 817.627 352.833 817.171 C 352.650 816.714 350.551 812.102 348.170 806.921 C 345.788 801.739 340.599 790.300 336.639 781.500 L 329.439 765.500 324.394 765.204 L 319.348 764.908 311.554 782.204 M 329.829 786.769 C 332.123 792.417 334.000 797.255 334.000 797.519 C 334.000 797.784 329.725 798.000 324.500 798.000 C 317.271 798.000 315.000 797.683 315.000 796.672 C 315.000 795.510 322.221 778.069 323.679 775.710 C 324.543 774.313 325.385 775.826 329.829 786.769 "/></g>
<g fill="#94B885FD">
<path d="M 648.000 220.002 C 648.000 223.827 648.746 224.773 664.750 241.252 C 673.963 250.739 682.288 258.823 683.250 259.218 C 684.213 259.613 685.000 260.588 685.000 261.384 C 685.000 262.181 685.338 262.983 685.750 263.167 C 687.134 263.782 698.000 276.103 698.000 277.057 C 698.000 277.576 691.475 284.735 683.500 292.966 C 675.525 301.197 669.000 308.404 669.000 308.981 C 669.000 309.557 667.680 310.832 666.068 311.813 C 664.455 312.793 660.651 316.499 657.615 320.048 C 654.579 323.597 651.174 327.528 650.048 328.785 C 647.951 331.125 647.202 337.000 649.000 337.000 C 649.550 337.000 650.000 337.675 650.000 338.500 C 650.000 339.325 649.499 340.000 648.887 340.000 C 647.594 340.000 648.014 367.347 649.327 368.660 C 650.408 369.741 667.858 350.817 667.251 349.222 C 666.984 348.519 665.849 347.454 664.730 346.856 C 662.979 345.918 662.254 346.293 659.520 349.549 C 657.720 351.693 655.861 353.032 655.227 352.640 C 653.435 351.533 654.154 331.138 656.024 329.998 C 658.318 328.600 671.000 315.751 671.000 314.825 C 671.000 314.371 671.900 314.000 673.000 314.000 C 674.207 314.000 675.000 313.333 675.000 312.319 C 675.000 311.394 682.200 303.389 691.000 294.530 C 700.102 285.368 707.000 277.626 707.000 276.573 C 707.000 275.491 696.232 263.869 681.095 248.611 C 666.847 234.250 653.982 221.038 652.506 219.250 C 648.985 214.986 648.000 215.150 648.000 220.002 "/></g>
<g fill="#3D2108FD">
<path d="M 993.000 791.500 L 993.000 818.000 1012.500 818.000 L 1032.000 818.000 1032.000 814.000 L 1032.000 810.000 1017.500 810.000 L 1003.000 810.000 1003.000 802.500 L 1003.000 795.000 1015.500 795.000 L 1028.000 795.000 1028.000 791.000 L 1028.000 787.000 1015.456 787.000 L 1002.912 787.000 1003.206 779.750 L 1003.500 772.500 1017.000 772.438 L 1030.500 772.377 1030.810 768.688 L 1031.121 765.000 1012.060 765.000 L 993.000 765.000 993.000 791.500 "/></g>
<g fill="#3D2108FD">
<path d="M 514.233 791.228 L 514.500 817.500 533.688 817.771 L 552.875 818.043 552.820 814.021 L 552.764 810.000 538.382 810.000 L 524.000 810.000 523.828 806.750 C 523.650 803.384 523.668 799.776 523.878 796.750 C 523.987 795.184 525.305 795.000 536.437 795.000 L 548.875 795.000 548.819 791.000 L 548.764 787.000 536.338 787.000 L 523.912 787.000 524.206 779.750 L 524.500 772.500 537.827 772.500 C 545.157 772.500 550.820 772.163 550.411 771.750 C 550.001 771.338 550.222 771.000 550.900 771.000 C 551.655 771.000 552.010 769.934 551.816 768.250 L 551.500 765.500 532.733 765.228 L 513.967 764.956 514.233 791.228 "/></g>
<g fill="#94B885FD">
<path d="M 770.250 279.251 C 769.013 279.831 768.000 280.878 768.000 281.577 C 768.000 282.276 772.500 287.286 778.000 292.709 C 783.500 298.133 788.000 303.176 788.000 303.916 C 788.000 304.657 784.809 308.460 780.909 312.368 C 777.008 316.276 773.408 320.237 772.909 321.170 C 772.189 322.516 773.348 324.170 778.500 329.152 C 782.075 332.608 785.000 335.913 785.000 336.496 C 785.000 337.550 788.533 341.047 790.562 342.000 C 792.252 342.794 804.584 356.268 805.883 358.740 C 807.333 361.501 805.532 369.138 800.328 382.299 C 798.401 387.172 796.978 391.311 797.164 391.498 C 797.351 391.685 798.674 392.131 800.103 392.490 C 802.569 393.109 802.881 392.718 806.225 384.821 C 812.220 370.663 815.763 356.365 817.951 337.500 C 819.349 325.439 819.320 325.000 817.122 325.000 C 814.278 325.000 813.327 326.878 812.567 334.000 C 811.698 342.138 810.062 348.844 808.747 349.656 C 807.610 350.359 795.058 337.183 795.023 335.250 C 795.010 334.563 794.640 334.000 794.200 334.000 C 792.685 334.000 782.000 323.838 782.000 322.398 C 782.000 321.604 785.375 317.346 789.500 312.935 C 793.625 308.524 797.000 304.365 797.000 303.693 C 797.000 303.020 791.488 297.009 784.750 290.333 C 773.611 279.297 772.296 278.292 770.250 279.251 "/></g>
<g fill="#3D2108FD">
<path d="M 180.000 791.500 L 180.000 818.000 199.500 818.000 L 219.000 818.000 219.000 814.027 L 219.000 810.053 204.250 809.777 L 189.500 809.500 189.207 802.280 L 188.914 795.060 201.707 794.780 L 214.500 794.500 214.500 791.000 L 214.500 787.500 202.000 787.000 L 189.500 786.500 189.198 780.091 C 188.989 775.640 189.294 773.430 190.198 772.856 C 190.914 772.402 197.463 772.024 204.750 772.015 L 218.000 772.000 218.000 768.500 L 218.000 765.000 199.000 765.000 L 180.000 765.000 180.000 791.500 "/></g>
<g fill="#3D2108FD">
<path d="M 863.802 790.750 C 863.597 804.913 863.584 816.838 863.773 817.250 C 863.963 817.663 872.656 818.000 883.090 818.000 C 903.653 818.000 903.949 817.917 902.589 812.498 L 901.962 810.000 887.481 810.000 L 873.000 810.000 873.000 802.500 L 873.000 795.000 885.500 795.000 L 898.000 795.000 898.000 791.031 L 898.000 787.062 885.750 786.781 L 873.500 786.500 873.198 780.091 C 872.989 775.650 873.296 773.420 874.198 772.829 C 874.914 772.360 881.125 772.035 888.000 772.108 L 900.500 772.239 900.810 768.620 L 901.121 765.000 882.649 765.000 L 864.177 765.000 863.802 790.750 "/></g>
<g fill="#3D2108FD">
<path d="M 951.500 765.335 C 942.671 768.269 938.027 772.046 934.102 779.485 C 930.807 785.732 931.125 797.097 934.793 804.118 C 941.821 817.571 959.304 822.586 974.664 815.554 L 980.000 813.111 980.000 802.055 L 980.000 791.000 976.000 791.000 L 972.000 791.000 972.000 799.465 C 972.000 807.214 971.810 808.033 969.750 809.155 C 966.450 810.951 955.118 810.692 951.398 808.735 C 940.143 802.811 937.527 787.808 946.122 778.483 C 952.493 771.571 963.506 770.059 971.498 774.999 C 975.682 777.585 976.427 777.524 978.452 774.433 C 979.848 772.302 979.913 771.600 978.831 770.296 C 974.936 765.603 959.257 762.757 951.500 765.335 "/></g>
<g fill="#3D2108FD">
<path d="M 580.324 765.375 C 567.771 769.493 561.000 778.878 561.000 792.158 C 561.000 812.584 582.850 824.723 603.284 815.648 L 609.068 813.080 608.784 802.290 L 608.500 791.500 604.750 791.190 L 601.000 790.879 601.000 798.868 C 601.000 808.188 600.129 809.558 593.580 810.540 C 584.445 811.910 576.544 808.253 572.471 800.770 C 568.753 793.938 569.208 785.812 573.621 780.265 C 577.207 775.757 584.128 772.000 588.846 772.000 C 592.918 772.000 600.226 774.003 601.168 775.377 C 602.573 777.429 605.965 776.982 607.569 774.535 C 609.602 771.433 609.012 770.547 602.831 767.415 C 596.652 764.283 586.466 763.361 580.324 765.375 "/></g>
<g fill="#3D2108FD">
<path d="M 1053.843 764.975 C 1045.633 767.455 1040.366 774.236 1041.291 781.135 C 1042.351 789.039 1045.561 791.549 1059.901 795.691 C 1069.972 798.600 1072.000 800.098 1072.000 804.629 C 1072.000 807.294 1071.418 808.250 1069.050 809.474 C 1064.427 811.865 1054.495 811.444 1048.384 808.598 L 1043.267 806.216 1041.654 809.598 C 1040.097 812.865 1040.118 813.030 1042.271 814.405 C 1045.754 816.631 1054.896 819.000 1060.000 819.000 C 1072.091 819.000 1082.000 812.220 1082.000 803.947 C 1082.000 795.485 1077.820 791.673 1064.500 787.989 C 1054.865 785.325 1053.459 784.630 1051.429 781.532 C 1046.774 774.427 1060.605 768.883 1071.562 773.462 C 1076.413 775.489 1076.373 775.499 1077.769 771.802 C 1079.190 768.035 1078.873 767.712 1071.568 765.496 C 1066.302 763.898 1058.195 763.660 1053.843 764.975 "/></g>
<g fill="#3D2108FD">
<path d="M 21.983 765.533 C 15.337 767.581 10.822 772.668 10.303 778.693 C 9.556 787.362 14.424 791.982 28.016 795.504 C 39.047 798.362 42.636 801.192 40.936 805.692 C 40.480 806.897 38.960 808.635 37.557 809.555 C 33.976 811.901 23.042 811.194 16.934 808.222 C 14.423 807.000 12.105 806.000 11.782 806.000 C 11.460 806.000 10.690 807.452 10.071 809.226 C 9.065 812.111 9.186 812.632 11.214 814.161 C 14.284 816.477 23.627 819.000 29.134 819.000 C 43.865 819.000 53.610 809.437 50.006 798.518 C 48.439 793.769 43.630 790.727 33.402 788.012 C 22.706 785.173 19.000 782.898 19.000 779.170 C 19.000 777.562 19.892 775.502 21.037 774.466 C 23.913 771.864 33.512 771.305 39.615 773.384 C 45.780 775.485 45.623 775.519 46.914 771.816 C 48.228 768.047 47.794 767.625 40.500 765.581 C 34.105 763.789 27.695 763.773 21.983 765.533 "/></g>
<g fill="#3D2108FD">
<path d="M 94.764 764.996 C 88.340 766.930 82.939 771.983 83.802 775.250 C 83.911 775.663 83.550 776.000 83.000 776.000 C 81.264 776.000 81.924 783.364 83.960 786.701 C 86.382 790.675 89.294 792.205 100.372 795.325 C 105.174 796.677 109.980 798.577 111.052 799.547 C 113.911 802.134 113.549 806.420 110.250 809.033 C 107.860 810.926 106.583 811.153 100.500 810.764 C 95.939 810.472 91.972 809.533 89.114 808.069 C 84.395 805.650 83.662 805.947 82.370 810.801 C 81.544 813.904 83.853 815.472 92.333 817.568 C 107.980 821.434 121.759 815.403 122.686 804.283 C 123.420 795.478 120.028 792.252 105.589 788.026 C 92.191 784.104 88.097 779.903 92.947 775.053 C 94.018 773.982 96.732 772.611 98.979 772.006 C 102.940 770.939 105.895 771.380 115.623 774.488 C 117.358 775.043 117.939 774.615 118.800 772.145 C 120.084 768.459 119.113 767.440 112.388 765.416 C 107.280 763.879 99.119 763.684 94.764 764.996 "/></g>
<g fill="#3D2108FD">
<path d="M 362.215 660.848 L 362.500 670.500 384.749 670.719 C 396.986 670.839 407.674 670.679 408.499 670.362 C 409.687 669.906 410.000 667.817 410.000 660.349 L 410.000 650.912 385.965 651.054 L 361.930 651.196 362.215 660.848 "/></g>
<g fill="#3D2108FD">
<path d="M 127.190 768.750 L 127.500 772.500 135.750 772.790 C 141.356 772.988 144.009 773.469 144.028 774.290 C 144.044 774.956 144.156 784.950 144.278 796.500 L 144.500 817.500 149.000 817.500 L 153.500 817.500 154.000 795.000 L 154.500 772.500 162.500 772.448 L 170.500 772.396 170.810 768.698 L 171.121 765.000 149.000 765.000 L 126.879 765.000 127.190 768.750 "/></g>
<g fill="#3D2108FD">
<path d="M 461.000 769.000 L 461.000 773.000 469.981 773.000 L 478.962 773.000 479.231 795.250 L 479.500 817.500 483.750 817.807 L 488.000 818.115 488.000 796.257 C 488.000 780.591 488.340 774.060 489.200 773.200 C 489.928 772.472 493.467 772.000 498.200 772.000 L 506.000 772.000 506.000 768.500 L 506.000 765.000 483.500 765.000 L 461.000 765.000 461.000 769.000 "/></g>
<g fill="#3D2108FD">
<path d="M 1086.000 768.500 L 1086.000 772.000 1093.941 772.000 C 1099.196 772.000 1102.156 772.423 1102.691 773.250 C 1103.136 773.938 1103.500 784.175 1103.500 796.000 L 1103.500 817.500 1107.650 817.803 L 1111.800 818.105 1112.531 807.379 C 1112.934 801.479 1112.960 791.866 1112.590 786.016 C 1112.219 780.167 1112.219 774.593 1112.588 773.630 C 1113.162 772.135 1114.444 771.912 1121.380 772.100 L 1129.500 772.320 1129.810 768.660 L 1130.121 765.000 1108.060 765.000 L 1086.000 765.000 1086.000 768.500 "/></g>
<g fill="#94B885FD">
<path d="M 742.888 416.500 C 739.596 418.289 737.564 423.070 738.374 427.122 C 738.716 428.832 740.403 431.834 742.122 433.792 C 745.089 437.171 745.216 437.655 744.624 443.323 C 744.281 446.607 744.000 451.467 744.000 454.123 L 744.000 458.952 736.500 464.597 C 732.375 467.702 729.000 470.347 729.000 470.475 C 729.000 470.603 730.059 471.850 731.353 473.247 L 733.706 475.786 737.680 472.642 C 745.027 466.827 752.000 460.204 752.000 459.038 C 752.000 458.402 752.350 458.098 752.778 458.363 C 753.207 458.628 756.457 455.954 760.001 452.422 C 766.101 446.343 766.300 446.000 763.723 446.000 C 761.969 446.000 761.000 445.466 761.000 444.500 C 761.000 442.186 759.690 442.693 756.100 446.397 C 754.288 448.266 752.063 449.650 751.153 449.474 C 750.244 449.297 749.298 449.119 749.050 449.077 C 748.803 449.034 749.140 448.460 749.800 447.800 C 750.460 447.140 751.000 444.074 751.000 440.987 C 751.000 436.056 751.364 435.025 754.000 432.500 C 756.409 430.192 757.000 428.791 757.000 425.390 C 757.000 417.041 750.003 412.633 742.888 416.500 M 751.393 423.250 C 753.848 427.167 747.048 431.154 744.306 427.404 C 742.620 425.098 742.660 424.483 744.625 422.518 C 746.611 420.531 749.912 420.888 751.393 423.250 "/></g>
<g fill="#3D2108FD">
<path d="M 735.000 791.523 L 735.000 818.045 753.250 817.773 L 771.500 817.500 771.500 814.000 L 771.500 810.500 757.750 810.222 L 744.000 809.944 744.000 787.472 L 744.000 765.000 739.500 765.000 L 735.000 765.000 735.000 791.523 "/></g>
<g fill="#D0B155FD">
<path d="M 664.739 275.761 L 648.000 292.521 648.000 311.261 C 648.000 323.494 648.359 330.000 649.034 330.000 C 649.602 330.000 651.014 328.396 652.170 326.437 C 653.937 323.441 654.241 321.448 654.076 313.937 C 653.845 303.426 654.727 302.742 660.403 309.025 C 663.474 312.423 664.344 312.886 665.997 312.002 C 668.680 310.566 670.579 307.000 668.661 307.000 C 666.817 307.000 656.841 295.995 657.213 294.370 C 657.371 293.681 664.172 286.341 672.326 278.059 C 680.481 269.776 686.721 263.000 686.193 263.000 C 685.665 263.000 684.998 262.100 684.710 261.000 C 684.423 259.900 683.578 259.000 682.833 259.000 C 682.088 259.000 673.945 266.542 664.739 275.761 "/></g>
<g fill="#D0B155FD">
<path d="M 656.394 329.765 C 655.786 330.169 654.978 332.188 654.599 334.250 C 653.996 337.526 654.153 338.000 655.840 338.000 C 656.901 338.000 658.446 339.031 659.271 340.291 C 660.638 342.377 662.603 344.417 674.243 355.830 C 676.301 357.848 677.989 360.222 677.993 361.105 C 677.997 361.987 676.058 364.462 673.683 366.605 C 671.309 368.747 664.784 375.306 659.183 381.180 C 650.892 389.876 649.000 392.420 649.000 394.871 C 649.000 400.182 651.007 399.614 657.737 392.401 C 661.278 388.606 669.311 380.283 675.587 373.907 C 681.864 367.531 687.000 361.525 687.000 360.560 C 687.000 359.595 684.085 355.786 680.521 352.095 C 674.513 345.871 674.146 345.237 675.463 343.357 C 676.809 341.434 676.625 341.259 671.898 339.972 C 668.163 338.955 665.786 337.410 662.417 333.807 C 659.943 331.163 657.825 329.007 657.710 329.015 C 657.594 329.024 657.002 329.361 656.394 329.765 "/></g>
<g fill="#94B885FD">
<path d="M 711.302 386.012 C 708.565 387.114 706.000 391.921 706.000 395.947 C 706.000 398.025 707.114 400.227 709.500 402.868 L 713.000 406.742 713.000 420.968 L 713.000 435.194 706.336 442.097 C 702.593 445.974 700.333 449.000 701.181 449.000 C 702.011 449.000 703.505 448.100 704.500 447.000 C 707.213 444.002 708.263 444.590 706.452 448.093 C 705.572 449.794 705.111 451.444 705.426 451.760 C 705.742 452.075 706.000 451.808 706.000 451.167 C 706.000 450.525 706.563 449.994 707.250 449.987 C 707.938 449.980 710.750 447.411 713.500 444.276 L 718.500 438.578 718.725 422.171 C 718.870 411.620 719.360 405.271 720.098 404.382 C 720.964 403.339 720.955 403.000 720.063 403.000 C 719.414 403.000 719.160 402.550 719.500 402.000 C 719.840 401.450 720.943 401.000 721.952 401.000 C 724.169 401.000 725.000 399.094 725.000 394.007 C 725.000 387.390 718.011 383.310 711.302 386.012 M 722.000 390.031 C 722.000 390.599 721.328 391.321 720.507 391.636 C 719.546 392.005 719.210 392.988 719.564 394.398 C 720.322 397.419 716.593 400.861 714.191 399.356 C 713.261 398.773 712.351 397.292 712.170 396.065 C 711.786 393.473 714.782 389.702 716.655 390.421 C 717.359 390.691 718.202 390.482 718.527 389.956 C 719.319 388.675 722.000 388.733 722.000 390.031 "/></g>
<g fill="#3D2108FD">
<path d="M 381.960 781.000 C 381.938 789.800 381.900 801.613 381.875 807.250 L 381.830 817.500 386.415 817.805 L 391.000 818.110 391.000 791.555 L 391.000 765.000 386.500 765.000 L 382.000 765.000 381.960 781.000 "/></g>
<g fill="#3D2108FD">
<path d="M 1139.000 791.500 L 1139.000 818.000 1143.500 818.000 L 1148.000 818.000 1148.000 791.500 L 1148.000 765.000 1143.500 765.000 L 1139.000 765.000 1139.000 791.500 "/></g>
<g fill="#3D2108FD">
<path d="M 61.000 791.500 L 61.000 818.000 65.500 818.000 L 70.000 818.000 70.000 791.500 L 70.000 765.000 65.500 765.000 L 61.000 765.000 61.000 791.500 "/></g>
<g fill="#94B885FD">
<path d="M 752.474 296.028 C 750.675 298.016 750.722 298.141 754.819 302.316 C 757.119 304.659 759.000 307.146 759.000 307.842 C 759.000 308.539 753.567 314.700 746.928 321.534 C 737.606 331.128 734.929 334.476 735.178 336.229 C 735.878 341.161 739.378 338.773 753.567 323.683 C 761.230 315.533 767.636 308.271 767.802 307.545 C 768.161 305.973 757.329 294.000 755.547 294.000 C 754.867 294.000 753.484 294.913 752.474 296.028 "/></g>
<g fill="#94B885FD">
<path d="M 722.068 347.713 C 716.788 353.638 716.472 354.633 719.306 356.421 C 720.692 357.296 721.993 356.485 726.603 351.876 C 731.596 346.882 732.087 346.031 731.071 344.133 C 729.309 340.840 727.582 341.526 722.068 347.713 "/></g>
<g fill="#D0B155FD">
<path d="M 690.290 249.446 L 685.780 253.892 688.428 256.346 L 691.076 258.800 696.156 253.429 C 701.605 247.667 702.008 245.000 697.431 245.000 C 695.660 245.000 693.325 246.453 690.290 249.446 "/></g>
<g fill="#3D2108FD">
<path d="M 1187.578 754.180 C 1185.610 756.479 1184.000 758.718 1184.000 759.155 C 1184.000 759.592 1185.463 759.660 1187.250 759.306 C 1190.774 758.608 1199.227 752.176 1198.394 750.828 C 1198.112 750.373 1196.369 750.000 1194.519 750.000 C 1191.809 750.000 1190.461 750.811 1187.578 754.180 "/></g>
<g fill="#94B885FD">
<path d="M 672.975 335.526 C 669.876 338.723 669.844 338.846 671.828 339.908 C 675.150 341.686 677.452 341.181 680.490 338.010 C 682.065 336.366 683.162 334.895 682.927 334.740 C 682.692 334.586 681.074 333.959 679.332 333.348 C 676.398 332.318 675.928 332.479 672.975 335.526 "/></g>
<g fill="#518939FD">
<path d="M 674.363 399.826 C 673.808 400.197 673.064 401.288 672.708 402.250 C 672.353 403.213 671.115 404.000 669.956 404.000 C 668.280 404.000 667.886 404.563 668.031 406.750 C 668.130 408.263 668.151 409.275 668.076 409.000 C 668.001 408.725 667.497 409.257 666.957 410.183 C 665.527 412.635 667.702 413.580 669.996 411.504 C 671.024 410.573 671.638 409.220 671.360 408.496 C 671.075 407.754 671.773 406.889 672.962 406.512 C 675.376 405.746 679.000 402.152 679.000 400.524 C 679.000 399.277 675.887 398.808 674.363 399.826 "/></g>
<g fill="#518939FD">
<path d="M 723.235 475.217 C 722.565 476.024 722.313 476.980 722.675 477.342 C 723.037 477.704 722.133 478.000 720.667 478.000 C 717.447 478.000 717.050 479.971 720.250 480.068 L 722.500 480.135 720.329 481.185 C 719.135 481.763 717.884 483.326 717.550 484.659 C 717.184 486.114 716.492 486.804 715.816 486.386 C 715.130 485.962 714.969 486.141 715.405 486.845 C 715.797 487.480 715.566 488.000 714.892 488.000 C 714.218 488.000 713.936 488.270 714.266 488.599 C 714.885 489.219 728.986 479.952 728.995 478.921 C 728.998 478.602 727.988 478.377 726.750 478.421 C 725.032 478.481 724.494 477.938 724.477 476.125 C 724.457 474.120 724.263 473.978 723.235 475.217 "/></g>
<g fill="#518939FD">
<path d="M 704.500 447.000 C 703.505 448.100 702.140 449.000 701.467 449.000 C 700.795 449.000 699.627 449.759 698.872 450.687 C 697.672 452.164 697.717 452.293 699.238 451.723 C 700.194 451.365 700.928 451.393 700.870 451.786 C 700.474 454.438 701.142 454.776 703.980 453.360 C 707.173 451.767 708.792 450.000 707.059 450.000 C 706.477 450.000 706.000 450.525 706.000 451.167 C 706.000 451.808 705.742 452.075 705.426 451.760 C 705.111 451.444 705.572 449.794 706.452 448.093 C 708.263 444.590 707.213 444.002 704.500 447.000 "/></g>
</svg>
